<svg width="20" height="21" viewBox="0 0 20 21" fill="none" xmlns="http://www.w3.org/2000/svg">
<path fill-rule="evenodd" clip-rule="evenodd" d="M0 10V6C0 3.172 -5.96046e-08 1.757 0.879 0.879C1.757 -5.96046e-08 3.172 0 6 0H14C16.828 0 18.243 -5.96046e-08 19.121 0.879C20 1.757 20 3.172 20 6V10C20 12.828 20 14.243 19.121 15.121C18.475 15.768 17.539 15.939 15.963 15.984C15.96 15.2262 15.6882 14.4941 15.196 13.918C15.1664 13.8847 15.1488 13.8425 15.146 13.798C15.0854 13.0373 14.7558 12.3231 14.2163 11.7834C13.6768 11.2437 12.9627 10.9138 12.202 10.853C12.1575 10.8502 12.1153 10.8326 12.082 10.803C11.5012 10.3081 10.7631 10.0362 10 10.0362C9.23692 10.0362 8.4988 10.3081 7.918 10.803C7.88468 10.8326 7.84245 10.8502 7.798 10.853C7.03714 10.9136 6.32277 11.2433 5.78305 11.7831C5.24334 12.3228 4.9136 13.0371 4.853 13.798C4.85016 13.8425 4.83256 13.8847 4.803 13.918C4.31114 14.4943 4.03971 15.2264 4.037 15.984C2.461 15.939 1.525 15.768 0.879 15.121C-5.96046e-08 14.243 0 12.828 0 10ZM6.25 4C6.25 3.80109 6.32902 3.61032 6.46967 3.46967C6.61032 3.32902 6.80109 3.25 7 3.25H13C13.1989 3.25 13.3897 3.32902 13.5303 3.46967C13.671 3.61032 13.75 3.80109 13.75 4C13.75 4.19891 13.671 4.38968 13.5303 4.53033C13.3897 4.67098 13.1989 4.75 13 4.75H7C6.80109 4.75 6.61032 4.67098 6.46967 4.53033C6.32902 4.38968 6.25 4.19891 6.25 4ZM5 6.75C4.80109 6.75 4.61032 6.82902 4.46967 6.96967C4.32902 7.11032 4.25 7.30109 4.25 7.5C4.25 7.69891 4.32902 7.88968 4.46967 8.03033C4.61032 8.17098 4.80109 8.25 5 8.25H15C15.1989 8.25 15.3897 8.17098 15.5303 8.03033C15.671 7.88968 15.75 7.69891 15.75 7.5C15.75 7.30109 15.671 7.11032 15.5303 6.96967C15.3897 6.82902 15.1989 6.75 15 6.75H5Z" fill="#4F4F4F"/>
<path fill-rule="evenodd" clip-rule="evenodd" d="M11.11 11.9451C10.8005 11.681 10.4069 11.5359 10 11.5359C9.59309 11.5359 9.19953 11.681 8.89 11.9451C8.6165 12.1791 8.27581 12.3202 7.917 12.3481C7.51147 12.3804 7.13073 12.5562 6.84316 12.844C6.55558 13.1317 6.38002 13.5126 6.348 13.9181C6.32 14.2761 6.178 14.6161 5.945 14.8911C5.6814 15.2005 5.53662 15.5937 5.53662 16.0001C5.53662 16.4066 5.6814 16.7997 5.945 17.1091C6.179 17.3831 6.32 17.7241 6.348 18.0821C6.38005 18.4878 6.55576 18.8688 6.84353 19.1566C7.13131 19.4444 7.51229 19.6201 7.918 19.6521C8.276 19.6801 8.617 19.8211 8.891 20.0541C9.20038 20.3177 9.59355 20.4625 10 20.4625C10.4065 20.4625 10.7996 20.3177 11.109 20.0541C11.3825 19.8202 11.7232 19.6791 12.082 19.6511C12.4876 19.6191 12.8684 19.4435 13.1562 19.156C13.4439 18.8684 13.6197 18.4877 13.652 18.0821C13.6797 17.7234 13.8204 17.3827 14.054 17.1091C14.3179 16.7997 14.4628 16.4063 14.4628 15.9996C14.4628 15.5929 14.3179 15.1996 14.054 14.8901C13.8201 14.6166 13.679 14.2759 13.651 13.9171C13.6187 13.5117 13.4431 13.1311 13.1555 12.8436C12.868 12.556 12.4874 12.3804 12.082 12.3481C11.7232 12.3202 11.3835 12.1791 11.11 11.9451ZM12.011 15.5481C12.0841 15.4812 12.1431 15.4004 12.1848 15.3105C12.2264 15.2206 12.2499 15.1233 12.2537 15.0243C12.2575 14.9252 12.2417 14.8264 12.2072 14.7336C12.1726 14.6407 12.1199 14.5556 12.0523 14.4832C11.9846 14.4108 11.9033 14.3525 11.813 14.3117C11.7227 14.2709 11.6252 14.2484 11.5261 14.2455C11.4271 14.2426 11.3284 14.2594 11.2359 14.2949C11.1433 14.3303 11.0588 14.3838 10.987 14.4521L9.357 15.9741L9.011 15.6521C8.86528 15.5186 8.67272 15.4479 8.47521 15.4556C8.27769 15.4633 8.09119 15.5486 7.95624 15.693C7.8213 15.8375 7.74883 16.0293 7.75459 16.2269C7.76035 16.4245 7.84387 16.6118 7.987 16.7481L8.844 17.5481C8.98291 17.6779 9.16591 17.7501 9.356 17.7501C9.54609 17.7501 9.72909 17.6779 9.868 17.5481L12.011 15.5481Z" fill="#4F4F4F"/>
</svg>
