<svg width="15" height="16" viewBox="0 0 15 16" fill="none" xmlns="http://www.w3.org/2000/svg">
<path fill-rule="evenodd" clip-rule="evenodd" d="M0 7.5V4.5C0 2.379 -4.47035e-08 1.31775 0.65925 0.65925C1.31775 -4.47035e-08 2.379 0 4.5 0H10.5C12.621 0 13.6823 -4.47035e-08 14.3407 0.65925C15 1.31775 15 2.379 15 4.5V7.5C15 9.621 15 10.6822 14.3407 11.3407C13.8562 11.826 13.1542 11.9542 11.9722 11.988C11.97 11.4197 11.7662 10.8706 11.397 10.4385C11.3748 10.4135 11.3616 10.3818 11.3595 10.3485C11.3141 9.77797 11.0669 9.24229 10.6622 8.83752C10.2576 8.43275 9.72201 8.18537 9.1515 8.13975C9.11816 8.13762 9.08649 8.12442 9.0615 8.10225C8.6259 7.73105 8.07231 7.52717 7.5 7.52717C6.92769 7.52717 6.3741 7.73105 5.9385 8.10225C5.91351 8.12442 5.88184 8.13762 5.8485 8.13975C5.27785 8.1852 4.74208 8.4325 4.33729 8.83729C3.9325 9.24207 3.6852 9.77785 3.63975 10.3485C3.63762 10.3818 3.62442 10.4135 3.60225 10.4385C3.23336 10.8707 3.02978 11.4198 3.02775 11.988C1.84575 11.9542 1.14375 11.826 0.65925 11.3407C-4.47035e-08 10.6822 0 9.621 0 7.5ZM4.6875 3C4.6875 2.85082 4.74676 2.70774 4.85225 2.60225C4.95774 2.49676 5.10082 2.4375 5.25 2.4375H9.75C9.89918 2.4375 10.0423 2.49676 10.1477 2.60225C10.2532 2.70774 10.3125 2.85082 10.3125 3C10.3125 3.14918 10.2532 3.29226 10.1477 3.39775C10.0423 3.50324 9.89918 3.5625 9.75 3.5625H5.25C5.10082 3.5625 4.95774 3.50324 4.85225 3.39775C4.74676 3.29226 4.6875 3.14918 4.6875 3ZM3.75 5.0625C3.60082 5.0625 3.45774 5.12176 3.35225 5.22725C3.24676 5.33274 3.1875 5.47582 3.1875 5.625C3.1875 5.77418 3.24676 5.91726 3.35225 6.02275C3.45774 6.12824 3.60082 6.1875 3.75 6.1875H11.25C11.3992 6.1875 11.5423 6.12824 11.6477 6.02275C11.7532 5.91726 11.8125 5.77418 11.8125 5.625C11.8125 5.47582 11.7532 5.33274 11.6477 5.22725C11.5423 5.12176 11.3992 5.0625 11.25 5.0625H3.75Z" fill="white"/>
<path fill-rule="evenodd" clip-rule="evenodd" d="M8.3325 8.95878C8.10035 8.76068 7.80518 8.65186 7.5 8.65186C7.19482 8.65186 6.89964 8.76068 6.6675 8.95878C6.46238 9.13423 6.20686 9.24006 5.93775 9.26103C5.6336 9.28524 5.34804 9.41709 5.13237 9.63291C4.91669 9.84872 4.78502 10.1344 4.761 10.4385C4.74 10.707 4.6335 10.962 4.45875 11.1683C4.26105 11.4003 4.15247 11.6952 4.15247 12C4.15247 12.3049 4.26105 12.5997 4.45875 12.8318C4.63425 13.0373 4.74 13.293 4.761 13.5615C4.78504 13.8658 4.91682 14.1515 5.13265 14.3674C5.34848 14.5832 5.63422 14.715 5.9385 14.739C6.207 14.76 6.46275 14.8658 6.66825 15.0405C6.90029 15.2382 7.19516 15.3468 7.5 15.3468C7.80484 15.3468 8.09971 15.2382 8.33175 15.0405C8.53687 14.8651 8.79239 14.7592 9.0615 14.7383C9.36566 14.7143 9.6513 14.5826 9.86712 14.3669C10.0829 14.1512 10.2148 13.8657 10.239 13.5615C10.2598 13.2925 10.3653 13.037 10.5405 12.8318C10.7384 12.5997 10.8471 12.3047 10.8471 11.9997C10.8471 11.6946 10.7384 11.3996 10.5405 11.1675C10.365 10.9624 10.2592 10.7069 10.2382 10.4378C10.2141 10.1337 10.0823 9.84829 9.86665 9.63262C9.65099 9.41696 9.36553 9.28522 9.0615 9.26103C8.79239 9.24006 8.53762 9.13423 8.3325 8.95878ZM9.00825 11.661C9.06304 11.6108 9.10734 11.5502 9.13859 11.4828C9.16983 11.4154 9.1874 11.3424 9.19028 11.2681C9.19316 11.1939 9.18129 11.1198 9.15536 11.0501C9.12944 10.9805 9.08996 10.9166 9.03922 10.8623C8.98848 10.808 8.92748 10.7643 8.85974 10.7337C8.79201 10.7031 8.71888 10.6862 8.64459 10.6841C8.5703 10.6819 8.49631 10.6945 8.42691 10.7211C8.35751 10.7477 8.29407 10.7878 8.24025 10.839L7.01775 11.9805L6.75825 11.739C6.64896 11.6389 6.50454 11.5859 6.35641 11.5916C6.20827 11.5974 6.06839 11.6614 5.96718 11.7697C5.86597 11.878 5.81162 12.0219 5.81594 12.1701C5.82026 12.3183 5.8829 12.4588 5.99025 12.561L6.633 13.161C6.73718 13.2584 6.87443 13.3125 7.017 13.3125C7.15957 13.3125 7.29682 13.2584 7.401 13.161L9.00825 11.661Z" fill="white"/>
</svg>
