<svg width="15" height="12" viewBox="0 0 15 12" fill="none" xmlns="http://www.w3.org/2000/svg">
<path d="M0.75 1.5C0.75 1.10218 0.908035 0.720644 1.18934 0.43934C1.47064 0.158035 1.85218 0 2.25 0H12.75C13.1478 0 13.5294 0.158035 13.8107 0.43934C14.092 0.720644 14.25 1.10218 14.25 1.5V8.25C14.25 8.44891 14.171 8.63968 14.0303 8.78033C13.8897 8.92098 13.6989 9 13.5 9H12V8.25C12 8.05109 11.921 7.86032 11.7803 7.71967C11.6397 7.57902 11.4489 7.5 11.25 7.5H7.5C7.30109 7.5 7.11032 7.57902 6.96967 7.71967C6.82902 7.86032 6.75 8.05109 6.75 8.25V9H1.5C1.30109 9 1.11032 8.92098 0.96967 8.78033C0.829018 8.63968 0.75 8.44891 0.75 8.25V1.5ZM0.75 9.75C0.551088 9.75 0.360322 9.82902 0.21967 9.96967C0.0790176 10.1103 0 10.3011 0 10.5C0 10.6989 0.0790176 10.8897 0.21967 11.0303C0.360322 11.171 0.551088 11.25 0.75 11.25H14.25C14.4489 11.25 14.6397 11.171 14.7803 11.0303C14.921 10.8897 15 10.6989 15 10.5C15 10.3011 14.921 10.1103 14.7803 9.96967C14.6397 9.82902 14.4489 9.75 14.25 9.75H0.75Z" fill="white"/>
</svg>
