<svg width="24" height="24" viewBox="0 0 24 24" fill="none" xmlns="http://www.w3.org/2000/svg">
<path fill-rule="evenodd" clip-rule="evenodd" d="M10.4725 0.0052558C10.2455 0.0932558 9.9875 0.275756 9.704 0.602256C9.269 1.10326 8.843 1.87026 8.47 2.87826C8.0725 3.95176 7.752 5.25426 7.539 6.70826H14.0855C13.8725 5.25426 13.5515 3.95176 13.1545 2.87826C12.7815 1.87026 12.3555 1.10326 11.9205 0.602256C11.637 0.275756 11.3785 0.0932558 11.152 0.0052558C10.9254 -0.00175193 10.6991 -0.00175193 10.4725 0.0052558ZM6.0235 6.70826H0.806002C2.0775 3.61226 4.7435 1.23676 8.0225 0.363256C7.6595 0.934756 7.3395 1.61076 7.063 2.35776C6.6055 3.59476 6.249 5.07626 6.024 6.70776M0.315502 13.4163H5.8575C5.78501 12.5502 5.74898 11.6814 5.7495 10.8123C5.7495 9.92226 5.787 9.05026 5.858 8.20826H0.315502C0.105414 9.0603 -0.00052618 9.93469 1.96496e-06 10.8123C1.96496e-06 11.7103 0.109502 12.5823 0.315502 13.4163ZM6.023 14.9163C6.1575 15.8963 6.3395 16.8213 6.562 17.6728V20.7578C3.95291 19.6385 1.88646 17.5412 0.806002 14.9158L6.023 14.9163ZM14.5615 2.35776C14.285 1.61076 13.9645 0.934756 13.6015 0.362756C16.8815 1.23626 19.5475 3.61176 20.8185 6.70776H15.6005C15.3755 5.07626 15.019 3.59476 14.5615 2.35776ZM21.3095 8.20776H15.7665C15.824 8.89226 15.8595 9.59576 15.8705 10.3128C16.3799 10.3188 16.885 10.4059 17.367 10.5708C18.099 10.8208 19.263 11.2428 20.859 11.8908C21.0983 11.9881 21.3255 12.0814 21.5405 12.1708C21.7067 10.8469 21.6284 9.50332 21.3095 8.20776ZM14.261 8.20826C14.3291 8.98147 14.3666 9.75708 14.3735 10.5333L14.2575 10.5713C13.525 10.8213 12.361 11.2433 10.7655 11.8913C9.7705 12.2958 8.9895 12.6328 8.39 12.9033C8.09978 13.0338 7.83066 13.2068 7.5915 13.4168H7.363C7.28681 12.5507 7.24894 11.6817 7.2495 10.8123C7.2495 9.91576 7.2895 9.04376 7.3635 8.20826H14.261ZM14.743 11.7408C15.4364 11.5032 16.1891 11.5032 16.8825 11.7408C17.5875 11.9818 18.725 12.3933 20.295 13.0308C21.0756 13.3462 21.8502 13.6763 22.6185 14.0208C23.2115 14.2883 23.5635 14.8368 23.5635 15.4323C23.5635 16.0278 23.2115 16.5763 22.6185 16.8438C21.8502 17.188 21.0756 17.5179 20.295 17.8333C18.725 18.4713 17.5875 18.8828 16.8825 19.1233C16.189 19.361 15.436 19.361 14.7425 19.1233C14.038 18.8828 12.9005 18.4713 11.3305 17.8333C10.738 17.5932 10.1486 17.3455 9.5625 17.0903V21.4623C9.5625 21.6612 9.48348 21.8519 9.34283 21.9926C9.20218 22.1332 9.01141 22.2123 8.8125 22.2123C8.61359 22.2123 8.42282 22.1332 8.28217 21.9926C8.14152 21.8519 8.0625 21.6612 8.0625 21.4623V15.4858L8.0615 15.4318C8.0615 14.8363 8.414 14.2878 9.0065 14.0203C9.77493 13.6758 10.5497 13.3457 11.3305 13.0303C12.9005 12.3928 14.038 11.9818 14.743 11.7408ZM14.258 20.5423C13.533 20.2948 12.3845 19.8788 10.8125 19.2413C10.815 20.2133 10.8655 20.8513 10.92 21.2613C10.9558 21.5463 11.0605 21.8183 11.2249 22.0539C11.3894 22.2895 11.6087 22.4814 11.864 22.6133C12.546 22.9658 13.827 23.4318 15.8125 23.4318C17.798 23.4318 19.0785 22.9658 19.761 22.6133C20.0162 22.4813 20.2355 22.2892 20.3999 22.0536C20.5643 21.818 20.6688 21.5458 20.7045 21.2608C20.7595 20.8513 20.8095 20.2133 20.8125 19.2418C19.2405 19.8793 18.0925 20.2948 17.3675 20.5423C16.3575 20.8873 15.2675 20.8873 14.2575 20.5423" fill="#2848A5"/>
</svg>
