<svg width="24" height="24" viewBox="0 0 24 24" fill="none" xmlns="http://www.w3.org/2000/svg">
<path d="M3.00001 9.7426L10.845 12.9713C11.2125 13.1213 11.6025 13.2001 12 13.2001C12.3975 13.2001 12.7875 13.1213 13.155 12.9713L22.245 9.22885C22.5825 9.0901 22.8 8.76385 22.8 8.4001C22.8 8.03635 22.5825 7.7101 22.245 7.57135L13.155 3.82885C12.7875 3.67885 12.3975 3.6001 12 3.6001C11.6025 3.6001 11.2125 3.67885 10.845 3.82885L1.75501 7.57135C1.41751 7.7101 1.20001 8.03635 1.20001 8.4001V19.5001C1.20001 19.9988 1.60126 20.4001 2.10001 20.4001C2.59876 20.4001 3.00001 19.9988 3.00001 19.5001V9.7426ZM4.80001 12.4313V16.8001C4.80001 18.7876 8.02501 20.4001 12 20.4001C15.975 20.4001 19.2 18.7876 19.2 16.8001V12.4276L13.8413 14.6363C13.2563 14.8763 12.6338 15.0001 12 15.0001C11.3663 15.0001 10.7438 14.8763 10.1588 14.6363L4.80001 12.4276V12.4313Z" fill="#2848A5"/>
</svg>
