<svg width="24" height="24" viewBox="0 0 24 24" fill="none" xmlns="http://www.w3.org/2000/svg">
<g clip-path="url(#clip0_8075_1527)">
<path d="M9.90002 4.1999H14.1C14.265 4.1999 14.4 4.3349 14.4 4.4999V5.9999H9.60002V4.4999C9.60002 4.3349 9.73502 4.1999 9.90002 4.1999ZM7.80002 4.4999V5.9999H4.80002C3.47627 5.9999 2.40002 7.07615 2.40002 8.3999V11.9999H13.8375C15.105 10.8787 16.7738 10.1999 18.6 10.1999C19.6725 10.1999 20.685 10.4324 21.6 10.8524V8.3999C21.6 7.07615 20.5238 5.9999 19.2 5.9999H16.2V4.4999C16.2 3.34115 15.2588 2.3999 14.1 2.3999H9.90002C8.74127 2.3999 7.80002 3.34115 7.80002 4.4999ZM10.8 15.5999C10.1363 15.5999 9.60002 15.0637 9.60002 14.3999V13.7999H2.40002V17.9999C2.40002 19.3237 3.47627 20.3999 4.80002 20.3999H12.0525C11.6325 19.4849 11.4 18.4724 11.4 17.3999C11.4 16.7774 11.4788 16.1737 11.625 15.5999H10.8ZM24 17.3999C24 14.4187 21.5813 11.9999 18.6 11.9999C15.6188 11.9999 13.2 14.4187 13.2 17.3999C13.2 20.3812 15.6188 22.7999 18.6 22.7999C21.5813 22.7999 24 20.3812 24 17.3999ZM18.6 14.3999C18.93 14.3999 19.2 14.6699 19.2 14.9999V16.7999H20.4C20.73 16.7999 21 17.0699 21 17.3999C21 17.7299 20.73 17.9999 20.4 17.9999H18.6C18.27 17.9999 18 17.7299 18 17.3999V14.9999C18 14.6699 18.27 14.3999 18.6 14.3999Z" fill="#2848A5"/>
</g>
<defs>
<clipPath id="clip0_8075_1527">
<rect width="24" height="24" fill="white"/>
</clipPath>
</defs>
</svg>
