<svg width="24" height="24" viewBox="0 0 24 24" fill="none" xmlns="http://www.w3.org/2000/svg">
<path d="M18.2144 2.57129C19.0669 2.57129 19.8844 2.90994 20.4872 3.51273C21.09 4.11553 21.4287 4.93309 21.4287 5.78557V18.2141C21.4287 19.0666 21.09 19.8842 20.4872 20.487C19.8844 21.0898 19.0669 21.4284 18.2144 21.4284H5.78582C4.93334 21.4284 4.11577 21.0898 3.51298 20.487C2.91018 19.8842 2.57153 19.0666 2.57153 18.2141V5.78557C2.57153 4.93309 2.91018 4.11553 3.51298 3.51273C4.11577 2.90994 4.93334 2.57129 5.78582 2.57129H18.2144ZM5.78582 17.1436C5.61532 17.1436 5.45181 17.2113 5.33125 17.3319C5.21069 17.4524 5.14296 17.6159 5.14296 17.7864C5.14296 17.9569 5.21069 18.1204 5.33125 18.241C5.45181 18.3616 5.61532 18.4293 5.78582 18.4293H18.2144C18.3849 18.4293 18.5484 18.3616 18.669 18.241C18.7895 18.1204 18.8572 17.9569 18.8572 17.7864C18.8572 17.6159 18.7895 17.4524 18.669 17.3319C18.5484 17.2113 18.3849 17.1436 18.2144 17.1436H5.78582ZM5.78582 13.7124C5.61532 13.7124 5.45181 13.7802 5.33125 13.9007C5.21069 14.0213 5.14296 14.1848 5.14296 14.3553C5.14296 14.5258 5.21069 14.6893 5.33125 14.8099C5.45181 14.9304 5.61532 14.9981 5.78582 14.9981H18.2144C18.3849 14.9981 18.5484 14.9304 18.669 14.8099C18.7895 14.6893 18.8572 14.5258 18.8572 14.3553C18.8572 14.1848 18.7895 14.0213 18.669 13.9007C18.5484 13.7802 18.3849 13.7124 18.2144 13.7124H5.78582ZM9.85896 5.14272C9.73253 5.14245 9.60883 5.17947 9.50333 5.24914C9.39782 5.31881 9.31521 5.41805 9.26582 5.53443L6.90868 11.1084C6.84979 11.2638 6.85337 11.436 6.91867 11.5888C6.98397 11.7416 7.10591 11.8632 7.25892 11.9281C7.41193 11.993 7.5841 11.996 7.73934 11.9367C7.89457 11.8774 8.02079 11.7602 8.09153 11.6099L8.47039 10.7159H11.2441L11.623 11.6099C11.6942 11.7592 11.8204 11.8753 11.9751 11.934C12.1298 11.9927 12.3013 11.9895 12.4537 11.925C12.6061 11.8605 12.7277 11.7397 12.7933 11.5878C12.8589 11.4358 12.8634 11.2644 12.8058 11.1093L10.4504 5.53529C10.4012 5.41901 10.3189 5.31978 10.2138 5.24997C10.1086 5.18016 9.9852 5.14286 9.85896 5.14272ZM15.2144 5.14272C15.0439 5.14272 14.8804 5.21045 14.7598 5.33101C14.6393 5.45157 14.5715 5.61508 14.5715 5.78557V6.857H13.5018C13.3313 6.857 13.1678 6.92473 13.0473 7.04529C12.9267 7.16585 12.859 7.32936 12.859 7.49986C12.859 7.67036 12.9267 7.83387 13.0473 7.95443C13.1678 8.07499 13.3313 8.14272 13.5018 8.14272H14.5715V9.21243C14.5715 9.38293 14.6393 9.54644 14.7598 9.667C14.8804 9.78756 15.0439 9.85529 15.2144 9.85529C15.3849 9.85529 15.5484 9.78756 15.669 9.667C15.7895 9.54644 15.8572 9.38293 15.8572 9.21243V8.14272H16.9287C17.0992 8.14272 17.2627 8.07499 17.3832 7.95443C17.5038 7.83387 17.5715 7.67036 17.5715 7.49986C17.5715 7.32936 17.5038 7.16585 17.3832 7.04529C17.2627 6.92473 17.0992 6.857 16.9287 6.857H15.8572V5.78557C15.8572 5.61508 15.7895 5.45157 15.669 5.33101C15.5484 5.21045 15.3849 5.14272 15.2144 5.14272ZM10.7007 9.43015H9.01468L9.85811 7.43558L10.7007 9.43015Z" fill="#2848A5"/>
</svg>
