<svg width="24" height="24" viewBox="0 0 24 24" fill="none" xmlns="http://www.w3.org/2000/svg">
<path d="M14.9999 5.3999C14.9999 6.19555 14.6838 6.95861 14.1212 7.52122C13.5586 8.08383 12.7956 8.3999 11.9999 8.3999C11.2043 8.3999 10.4412 8.08383 9.87858 7.52122C9.31597 6.95861 8.9999 6.19555 8.9999 5.3999C8.9999 4.60425 9.31597 3.84119 9.87858 3.27858C10.4412 2.71597 11.2043 2.3999 11.9999 2.3999C12.7956 2.3999 13.5586 2.71597 14.1212 3.27858C14.6838 3.84119 14.9999 4.60425 14.9999 5.3999ZM20.9999 5.9999C20.9999 6.63642 20.747 7.24687 20.297 7.69696C19.8469 8.14705 19.2364 8.3999 18.5999 8.3999C17.9634 8.3999 17.3529 8.14705 16.9028 7.69696C16.4528 7.24687 16.1999 6.63642 16.1999 5.9999C16.1999 5.36338 16.4528 4.75293 16.9028 4.30285C17.3529 3.85276 17.9634 3.5999 18.5999 3.5999C19.2364 3.5999 19.8469 3.85276 20.297 4.30285C20.747 4.75293 20.9999 5.36338 20.9999 5.9999ZM5.3999 8.3999C6.03642 8.3999 6.64687 8.14705 7.09696 7.69696C7.54705 7.24687 7.7999 6.63642 7.7999 5.9999C7.7999 5.36338 7.54705 4.75293 7.09696 4.30285C6.64687 3.85276 6.03642 3.5999 5.3999 3.5999C4.76338 3.5999 4.15293 3.85276 3.70285 4.30285C3.25276 4.75293 2.9999 5.36338 2.9999 5.9999C2.9999 6.63642 3.25276 7.24687 3.70285 7.69696C4.15293 8.14705 4.76338 8.3999 5.3999 8.3999ZM7.1999 11.0999C7.1999 10.2719 7.8719 9.5999 8.6999 9.5999H15.2999C16.1279 9.5999 16.7999 10.2719 16.7999 11.0999V16.7999C16.7999 18.0729 16.2942 19.2938 15.394 20.194C14.4938 21.0942 13.2729 21.5999 11.9999 21.5999C10.7269 21.5999 9.50596 21.0942 8.60579 20.194C7.70562 19.2938 7.1999 18.0729 7.1999 16.7999V11.0999ZM5.9999 11.0999C5.9999 10.5443 6.1679 10.0295 6.4547 9.5999H3.8999C3.0719 9.5999 2.3999 10.2719 2.3999 11.0999V15.5999C2.39985 16.1136 2.50975 16.6215 2.72222 17.0892C2.9347 17.5569 3.24483 17.9738 3.63177 18.3117C4.01871 18.6497 4.4735 18.9009 4.96558 19.0485C5.45766 19.1961 5.97564 19.2367 6.4847 19.1675C6.16419 18.4194 5.99924 17.6138 5.9999 16.7999V11.0999ZM17.9999 16.7999C17.9999 17.6399 17.8271 18.4415 17.5151 19.1675C17.6735 19.1891 17.8351 19.1999 17.9999 19.1999C18.9547 19.1999 19.8704 18.8206 20.5455 18.1455C21.2206 17.4704 21.5999 16.5547 21.5999 15.5999V11.0999C21.5999 10.2719 20.9279 9.5999 20.0999 9.5999H17.5451C17.8331 10.0295 17.9999 10.5443 17.9999 11.0999V16.7999Z" fill="#1BAE7E"/>
</svg>
