<svg width="24" height="24" viewBox="0 0 24 24" fill="none" xmlns="http://www.w3.org/2000/svg">
<path d="M4.75001 3C4.02067 3 3.32119 3.28973 2.80547 3.80546C2.28974 4.32118 2.00001 5.02065 2.00001 5.75V11C2.79566 9.93913 3.98015 9.23779 5.29291 9.05025C6.60566 8.86272 7.93915 9.20435 9.00001 10C10.0609 10.7956 10.7622 11.9801 10.9498 13.2929C11.1373 14.6056 10.7957 15.9391 10 17V18H19.25C19.9794 18 20.6788 17.7103 21.1946 17.1945C21.7103 16.6788 22 15.9793 22 15.25V5.75C22 5.02065 21.7103 4.32118 21.1946 3.80546C20.6788 3.28973 19.9794 3 19.25 3H4.75001ZM6.75001 7H17.25C17.4489 7 17.6397 7.07902 17.7803 7.21967C17.921 7.36032 18 7.55109 18 7.75C18 7.94891 17.921 8.13968 17.7803 8.28033C17.6397 8.42098 17.4489 8.5 17.25 8.5H6.75001C6.5511 8.5 6.36033 8.42098 6.21968 8.28033C6.07903 8.13968 6.00001 7.94891 6.00001 7.75C6.00001 7.55109 6.07903 7.36032 6.21968 7.21967C6.36033 7.07902 6.5511 7 6.75001 7ZM12 12.75C12 12.5511 12.079 12.3603 12.2197 12.2197C12.3603 12.079 12.5511 12 12.75 12H17.25C17.4489 12 17.6397 12.079 17.7803 12.2197C17.921 12.3603 18 12.5511 18 12.75C18 12.9489 17.921 13.1397 17.7803 13.2803C17.6397 13.421 17.4489 13.5 17.25 13.5H12.75C12.5511 13.5 12.3603 13.421 12.2197 13.2803C12.079 13.1397 12 12.9489 12 12.75ZM6.00001 10C4.93901 10 3.92147 10.4215 3.17123 11.1717C2.42099 11.922 1.99951 12.9395 1.99951 14.0005C1.99951 15.0615 2.42099 16.079 3.17123 16.8293C3.92147 17.5795 4.93901 18.001 6.00001 18.001C7.06101 18.001 8.07855 17.5795 8.82879 16.8293C9.57903 16.079 10.0005 15.0615 10.0005 14.0005C10.0005 12.9395 9.57903 11.922 8.82879 11.1717C8.07855 10.4215 7.06101 10 6.00001 10ZM9.00001 18.001C8.16501 18.629 7.12601 19.001 6.00001 19.001C4.91815 19.003 3.86506 18.6527 3.00001 18.003V21.249C3.00001 21.819 3.60501 22.169 4.09001 21.918L4.18001 21.863L6.00001 20.592L7.82001 21.864C7.92512 21.9374 8.04728 21.9826 8.17484 21.9954C8.3024 22.0081 8.4311 21.9879 8.54865 21.9368C8.66619 21.8856 8.76867 21.8052 8.84629 21.7032C8.92391 21.6012 8.97408 21.4809 8.99201 21.354L9.00001 21.249V18.001Z" fill="#1BAE7E"/>
</svg>
