<svg width="24" height="24" viewBox="0 0 24 24" fill="none" xmlns="http://www.w3.org/2000/svg">
<path d="M12 3.00293C11.6064 3.00293 11.2167 3.08045 10.8531 3.23106C10.4895 3.38168 10.1591 3.60243 9.8808 3.88073C9.6025 4.15903 9.38175 4.48941 9.23113 4.85303C9.08052 5.21664 9.003 5.60636 9.003 5.99993C9.003 6.3935 9.08052 6.78322 9.23113 7.14683C9.38175 7.51045 9.6025 7.84083 9.8808 8.11913C10.1591 8.39743 10.4895 8.61818 10.8531 8.7688C11.2167 8.91941 11.6064 8.99693 12 8.99693C12.7949 8.99693 13.5572 8.68118 14.1192 8.11913C14.6812 7.55708 14.997 6.79478 14.997 5.99993C14.997 5.20508 14.6812 4.44278 14.1192 3.88073C13.5572 3.31868 12.7949 3.00293 12 3.00293ZM18.75 4.49993C18.1533 4.49993 17.581 4.73698 17.159 5.15894C16.7371 5.5809 16.5 6.15319 16.5 6.74993C16.5 7.34667 16.7371 7.91896 17.159 8.34092C17.581 8.76288 18.1533 8.99993 18.75 8.99993C19.3467 8.99993 19.919 8.76288 20.341 8.34092C20.7629 7.91896 21 7.34667 21 6.74993C21 6.15319 20.7629 5.5809 20.341 5.15894C19.919 4.73698 19.3467 4.49993 18.75 4.49993ZM5.25 4.49993C4.65326 4.49993 4.08097 4.73698 3.65901 5.15894C3.23705 5.5809 3 6.15319 3 6.74993C3 7.34667 3.23705 7.91896 3.65901 8.34092C4.08097 8.76288 4.65326 8.99993 5.25 8.99993C5.84674 8.99993 6.41903 8.76288 6.84099 8.34092C7.26295 7.91896 7.5 7.34667 7.5 6.74993C7.5 6.15319 7.26295 5.5809 6.84099 5.15894C6.41903 4.73698 5.84674 4.49993 5.25 4.49993ZM7.5 11.9894C7.50277 11.5934 7.66203 11.2146 7.94304 10.9356C8.22404 10.6565 8.60399 10.4999 9 10.4999H15C15.3978 10.4999 15.7794 10.658 16.0607 10.9393C16.342 11.2206 16.5 11.6021 16.5 11.9999V16.4999C16.5004 16.972 16.4265 17.4413 16.281 17.8904C15.9489 18.9085 15.2647 19.7748 14.3513 20.3338C13.4379 20.8928 12.3551 21.1078 11.2974 20.9403C10.2398 20.7729 9.27642 20.2338 8.58042 19.4199C7.88442 18.6061 7.50135 17.5708 7.5 16.4999V11.9894ZM6 11.9999C6 11.4524 6.1455 10.9409 6.402 10.4999H3C2.60218 10.4999 2.22064 10.658 1.93934 10.9393C1.65804 11.2206 1.5 11.6021 1.5 11.9999V15.7499C1.4998 16.3639 1.65034 16.9685 1.93841 17.5107C2.22648 18.0529 2.64326 18.516 3.15216 18.8595C3.66106 19.2029 4.24651 19.4162 4.85708 19.4805C5.46766 19.5449 6.0847 19.4583 6.654 19.2284C6.22319 18.3829 5.99906 17.4473 6 16.4984V11.9999ZM18 11.9999V16.4999C18 17.4824 17.7645 18.4094 17.346 19.2284C17.9153 19.4583 18.5323 19.5449 19.1429 19.4805C19.7535 19.4162 20.3389 19.2029 20.8478 18.8595C21.3567 18.516 21.7735 18.0529 22.0616 17.5107C22.3497 16.9685 22.5002 16.3639 22.5 15.7499V11.9999C22.5 11.6021 22.342 11.2206 22.0607 10.9393C21.7794 10.658 21.3978 10.4999 21 10.4999H17.598C17.853 10.9409 18 11.4524 18 11.9999Z" fill="#243C7C"/>
</svg>
