<svg width="24" height="24" viewBox="0 0 24 24" fill="none" xmlns="http://www.w3.org/2000/svg">
<path fill-rule="evenodd" clip-rule="evenodd" d="M19.5 6.5C19.1022 6.5 18.7206 6.65804 18.4393 6.93934C18.158 7.22064 18 7.60218 18 8V9H21V8C21 7.60218 20.842 7.22064 20.5607 6.93934C20.2794 6.65804 19.8978 6.5 19.5 6.5ZM21 10H18V18.25L19.5 20.5L21 18.25V10ZM3 4.5V19.5C3 19.8978 3.15804 20.2794 3.43934 20.5607C3.72064 20.842 4.10218 21 4.5 21H15.5C15.8978 21 16.2794 20.842 16.5607 20.5607C16.842 20.2794 17 19.8978 17 19.5V4.5C17 4.10218 16.842 3.72064 16.5607 3.43934C16.2794 3.15804 15.8978 3 15.5 3H4.5C4.10218 3 3.72064 3.15804 3.43934 3.43934C3.15804 3.72064 3 4.10218 3 4.5ZM10 7.5C10 7.36739 10.0527 7.24021 10.1464 7.14645C10.2402 7.05268 10.3674 7 10.5 7H14.5C14.6326 7 14.7598 7.05268 14.8536 7.14645C14.9473 7.24021 15 7.36739 15 7.5C15 7.63261 14.9473 7.75979 14.8536 7.85355C14.7598 7.94732 14.6326 8 14.5 8H10.5C10.3674 8 10.2402 7.94732 10.1464 7.85355C10.0527 7.75979 10 7.63261 10 7.5ZM10.5 9C10.3674 9 10.2402 9.05268 10.1464 9.14645C10.0527 9.24021 10 9.36739 10 9.5C10 9.63261 10.0527 9.75979 10.1464 9.85355C10.2402 9.94732 10.3674 10 10.5 10H14.5C14.6326 10 14.7598 9.94732 14.8536 9.85355C14.9473 9.75979 15 9.63261 15 9.5C15 9.36739 14.9473 9.24021 14.8536 9.14645C14.7598 9.05268 14.6326 9 14.5 9H10.5ZM10 14C10 13.8674 10.0527 13.7402 10.1464 13.6464C10.2402 13.5527 10.3674 13.5 10.5 13.5H14.5C14.6326 13.5 14.7598 13.5527 14.8536 13.6464C14.9473 13.7402 15 13.8674 15 14C15 14.1326 14.9473 14.2598 14.8536 14.3536C14.7598 14.4473 14.6326 14.5 14.5 14.5H10.5C10.3674 14.5 10.2402 14.4473 10.1464 14.3536C10.0527 14.2598 10 14.1326 10 14ZM10.5 15.5C10.3674 15.5 10.2402 15.5527 10.1464 15.6464C10.0527 15.7402 10 15.8674 10 16C10 16.1326 10.0527 16.2598 10.1464 16.3536C10.2402 16.4473 10.3674 16.5 10.5 16.5H14.5C14.6326 16.5 14.7598 16.4473 14.8536 16.3536C14.9473 16.2598 15 16.1326 15 16C15 15.8674 14.9473 15.7402 14.8536 15.6464C14.7598 15.5527 14.6326 15.5 14.5 15.5H10.5ZM6 14V15.5H7.5V14H6ZM5.5 13H8C8.13261 13 8.25979 13.0527 8.35355 13.1464C8.44732 13.2402 8.5 13.3674 8.5 13.5V16C8.5 16.1326 8.44732 16.2598 8.35355 16.3536C8.25979 16.4473 8.13261 16.5 8 16.5H5.5C5.36739 16.5 5.24021 16.4473 5.14645 16.3536C5.05268 16.2598 5 16.1326 5 16V13.5C5 13.3674 5.05268 13.2402 5.14645 13.1464C5.24021 13.0527 5.36739 13 5.5 13ZM8.8535 7.8535C8.94458 7.7592 8.99498 7.6329 8.99384 7.5018C8.9927 7.3707 8.94011 7.24529 8.84741 7.15259C8.75471 7.05989 8.6293 7.0073 8.4982 7.00616C8.3671 7.00502 8.2408 7.05542 8.1465 7.1465L6.5 8.793L5.8535 8.1465C5.7592 8.05542 5.6329 8.00502 5.5018 8.00616C5.3707 8.0073 5.24529 8.05989 5.15259 8.15259C5.05989 8.24529 5.0073 8.3707 5.00616 8.5018C5.00502 8.6329 5.05542 8.7592 5.1465 8.8535L6.5 10.207L8.8535 7.8535Z" fill="#424E62"/>
</svg>
