<svg width="18" height="18" viewBox="0 0 18 18" fill="none" xmlns="http://www.w3.org/2000/svg">
<mask id="mask0_8050_8529" style="mask-type:luminance" maskUnits="userSpaceOnUse" x="0" y="0" width="18" height="18">
<path d="M9.00001 16.5C9.9851 16.5012 10.9607 16.3078 11.8708 15.9308C12.7809 15.5538 13.6076 15.0007 14.3033 14.3033C15.0007 13.6076 15.5538 12.7809 15.9308 11.8708C16.3078 10.9607 16.5012 9.9851 16.5 9.00001C16.5012 8.01491 16.3078 7.03929 15.9308 6.12919C15.5538 5.21909 15.0007 4.39245 14.3033 3.69676C13.6076 2.99932 12.7809 2.44621 11.8708 2.06922C10.9607 1.69223 9.9851 1.49879 9.00001 1.50001C8.01491 1.49879 7.03929 1.69223 6.12919 2.06922C5.21909 2.44621 4.39245 2.99932 3.69676 3.69676C2.99932 4.39245 2.44621 5.21909 2.06922 6.12919C1.69223 7.03929 1.49879 8.01491 1.50001 9.00001C1.49879 9.9851 1.69223 10.9607 2.06922 11.8708C2.44621 12.7809 2.99932 13.6076 3.69676 14.3033C4.39245 15.0007 5.21909 15.5538 6.12919 15.9308C7.03929 16.3078 8.01491 16.5012 9.00001 16.5Z" fill="white" stroke="white" stroke-width="1.5" stroke-linejoin="round"/>
<path d="M6 9L8.25 11.25L12.75 6.75" stroke="black" stroke-width="1.5" stroke-linecap="round" stroke-linejoin="round"/>
</mask>
<g mask="url(#mask0_8050_8529)">
<path d="M0 0H18V18H0V0Z" fill="white"/>
</g>
</svg>
