<svg width="19" height="21" viewBox="0 0 19 21" fill="none" xmlns="http://www.w3.org/2000/svg">
<path d="M5 10C5.50458 9.99984 5.99057 10.1904 6.36055 10.5335C6.73053 10.8766 6.95716 11.3468 6.995 11.85L7 12V15C7.00016 15.5046 6.80959 15.9906 6.4665 16.3605C6.12341 16.7305 5.65316 16.9572 5.15 16.995L5 17H2C1.49542 17.0002 1.00943 16.8096 0.639452 16.4665C0.269471 16.1234 0.0428434 15.6532 0.00500021 15.15L1.00268e-07 15V12C-0.000159579 11.4954 0.190406 11.0094 0.533497 10.6395C0.876588 10.2695 1.34684 10.0428 1.85 10.005L2 10H5ZM14 14C14.2549 14.0003 14.5 14.0979 14.6854 14.2728C14.8707 14.4478 14.9822 14.687 14.9972 14.9414C15.0121 15.1958 14.9293 15.4464 14.7657 15.6418C14.6021 15.8373 14.3701 15.9629 14.117 15.993L14 16H10C9.74512 15.9997 9.49997 15.9021 9.31463 15.7272C9.1293 15.5522 9.01777 15.313 9.00283 15.0586C8.98789 14.8042 9.07067 14.5536 9.23426 14.3582C9.39785 14.1627 9.6299 14.0371 9.883 14.007L10 14H14ZM18 10C18.2652 10 18.5196 10.1054 18.7071 10.2929C18.8946 10.4804 19 10.7348 19 11C19 11.2652 18.8946 11.5196 18.7071 11.7071C18.5196 11.8946 18.2652 12 18 12H10C9.73478 12 9.48043 11.8946 9.29289 11.7071C9.10536 11.5196 9 11.2652 9 11C9 10.7348 9.10536 10.4804 9.29289 10.2929C9.48043 10.1054 9.73478 10 10 10H18ZM5 0C5.53043 0 6.03914 0.210714 6.41421 0.585786C6.78929 0.960859 7 1.46957 7 2V5C7 5.53043 6.78929 6.03914 6.41421 6.41421C6.03914 6.78929 5.53043 7 5 7H2C1.46957 7 0.960859 6.78929 0.585786 6.41421C0.210714 6.03914 1.00268e-07 5.53043 1.00268e-07 5V2C1.00268e-07 1.46957 0.210714 0.960859 0.585786 0.585786C0.960859 0.210714 1.46957 0 2 0H5ZM14 4C14.2549 4.00028 14.5 4.09788 14.6854 4.27285C14.8707 4.44782 14.9822 4.68695 14.9972 4.94139C15.0121 5.19584 14.9293 5.44638 14.7657 5.64183C14.6021 5.83729 14.3701 5.9629 14.117 5.993L14 6H10C9.74512 5.99972 9.49997 5.90212 9.31463 5.72715C9.1293 5.55218 9.01777 5.31305 9.00283 5.05861C8.98789 4.80416 9.07067 4.55362 9.23426 4.35817C9.39785 4.16271 9.6299 4.0371 9.883 4.007L10 4H14ZM18 0C18.2549 0.000282707 18.5 0.0978791 18.6854 0.272848C18.8707 0.447818 18.9822 0.686953 18.9972 0.941395C19.0121 1.19584 18.9293 1.44638 18.7657 1.64183C18.6021 1.83729 18.3701 1.9629 18.117 1.993L18 2H10C9.74512 1.99972 9.49997 1.90212 9.31463 1.72715C9.1293 1.55218 9.01777 1.31305 9.00283 1.05861C8.98789 0.804163 9.07067 0.553621 9.23426 0.358167C9.39785 0.162714 9.6299 0.0371036 9.883 0.00699997L10 0H18Z" fill="#4F4F4F"/>
</svg>
