<svg width="20" height="15" viewBox="0 0 20 15" fill="none" xmlns="http://www.w3.org/2000/svg">
<path fill-rule="evenodd" clip-rule="evenodd" d="M6.67233 0H13.3283C16.7023 0 18.3903 4.76837e-07 19.3383 0.987C20.2863 1.974 20.0623 3.498 19.6163 6.547L19.1943 9.439C18.8443 11.83 18.6693 13.026 17.7723 13.742C16.8753 14.458 15.5523 14.458 12.9053 14.458H7.09533C4.44933 14.458 3.12533 14.458 2.22833 13.742C1.33133 13.026 1.15633 11.83 0.806329 9.439L0.384329 6.548C-0.0626707 3.498 -0.285671 1.974 0.662329 0.987C1.61033 4.76837e-07 3.29833 0 6.67233 0ZM6.00033 10.458C6.00033 10.044 6.37333 9.708 6.83333 9.708H13.1673C13.6273 9.708 14.0003 10.044 14.0003 10.458C14.0003 10.872 13.6273 11.208 13.1673 11.208H6.83333C6.37333 11.208 6.00033 10.872 6.00033 10.458Z" fill="#4F4F4F"/>
</svg>
