<svg width="24" height="24" viewBox="0 0 24 24" fill="none" xmlns="http://www.w3.org/2000/svg">
<path fill-rule="evenodd" clip-rule="evenodd" d="M3.586 2.586C3 3.172 3 4.114 3 6V16C3 18.828 3 20.243 3.879 21.121C4.52 21.763 5.447 21.936 7 21.983V19C7 18.7348 7.10536 18.4804 7.29289 18.2929C7.48043 18.1054 7.73478 18 8 18C8.26522 18 8.51957 18.1054 8.70711 18.2929C8.89464 18.4804 9 18.7348 9 19V22H15V19C15 18.7348 15.1054 18.4804 15.2929 18.2929C15.4804 18.1054 15.7348 18 16 18C16.2652 18 16.5196 18.1054 16.7071 18.2929C16.8946 18.4804 17 18.7348 17 19V21.983C18.553 21.936 19.48 21.763 20.121 21.121C21 20.243 21 18.828 21 16V6C21 4.114 21 3.172 20.414 2.586C19.828 2 18.886 2 17 2H7C5.114 2 4.172 2 3.586 2.586ZM8 8C7.73478 8 7.48043 8.10536 7.29289 8.29289C7.10536 8.48043 7 8.73478 7 9C7 9.26522 7.10536 9.51957 7.29289 9.70711C7.48043 9.89464 7.73478 10 8 10H16C16.2652 10 16.5196 9.89464 16.7071 9.70711C16.8946 9.51957 17 9.26522 17 9C17 8.73478 16.8946 8.48043 16.7071 8.29289C16.5196 8.10536 16.2652 8 16 8H8ZM8 14H16C16.2652 14 16.5196 13.8946 16.7071 13.7071C16.8946 13.5196 17 13.2652 17 13C17 12.7348 16.8946 12.4804 16.7071 12.2929C16.5196 12.1054 16.2652 12 16 12H8C7.73478 12 7.48043 12.1054 7.29289 12.2929C7.10536 12.4804 7 12.7348 7 13C7 13.2652 7.10536 13.5196 7.29289 13.7071C7.48043 13.8946 7.73478 14 8 14Z" fill="#2848A5"/>
</svg>
