<svg width="24" height="24" viewBox="0 0 24 24" fill="none" xmlns="http://www.w3.org/2000/svg">
<path d="M7.75453 13.38V20.21C7.75453 20.6184 7.59228 21.0101 7.30347 21.2989C7.01466 21.5878 6.62296 21.75 6.21452 21.75H4.40453C4.20145 21.7513 4.00012 21.7125 3.81212 21.6357C3.62412 21.5589 3.45317 21.4456 3.30911 21.3025C3.16505 21.1594 3.05072 20.9891 2.9727 20.8017C2.89468 20.6142 2.85452 20.4131 2.85452 20.21V13.38C2.8532 13.1761 2.89238 12.9739 2.96981 12.7853C3.04723 12.5966 3.16135 12.4252 3.30555 12.281C3.44974 12.1368 3.62114 12.0227 3.8098 11.9453C3.99845 11.8679 4.20061 11.8287 4.40453 11.83H6.21452C6.4176 11.83 6.61868 11.8702 6.80618 11.9482C6.99367 12.0262 7.16389 12.1405 7.30702 12.2846C7.45015 12.4286 7.56338 12.5996 7.64018 12.7876C7.71698 12.9756 7.75584 13.1769 7.75453 13.38ZM14.4545 3.8V20.21C14.4545 20.4131 14.4144 20.6142 14.3364 20.8017C14.2583 20.9891 14.144 21.1594 13.9999 21.3025C13.8559 21.4456 13.6849 21.5589 13.4969 21.6357C13.3089 21.7125 13.1076 21.7513 12.9045 21.75H11.0945C10.6852 21.75 10.2924 21.5881 10.002 21.2996C9.71163 21.011 9.54717 20.6193 9.54453 20.21V3.8C9.54715 3.38972 9.71129 2.997 10.0014 2.70688C10.2915 2.41677 10.6842 2.25262 11.0945 2.25H12.9045C13.3156 2.25 13.7099 2.4133 14.0005 2.70398C14.2912 2.99467 14.4545 3.38891 14.4545 3.8ZM21.1445 8.98V20.21C21.1445 20.6184 20.9823 21.0101 20.6935 21.2989C20.4047 21.5878 20.013 21.75 19.6045 21.75H17.7945C17.5914 21.7513 17.3901 21.7125 17.2021 21.6357C17.0141 21.5589 16.8432 21.4456 16.6991 21.3025C16.555 21.1594 16.4407 20.9891 16.3627 20.8017C16.2847 20.6142 16.2445 20.4131 16.2445 20.21V8.98C16.2445 8.77645 16.2846 8.5749 16.3625 8.38684C16.4404 8.19879 16.5546 8.02792 16.6985 7.88398C16.8424 7.74005 17.0133 7.62588 17.2014 7.54799C17.3894 7.47009 17.591 7.43 17.7945 7.43H19.6445C20.0469 7.44299 20.4284 7.612 20.7084 7.90129C20.9883 8.19058 21.1447 8.57743 21.1445 8.98Z" fill="#2848A5"/>
</svg>
