<svg width="16" height="16" viewBox="0 0 16 16" fill="none" xmlns="http://www.w3.org/2000/svg">
<path d="M7.29948 8.46669L6.33281 7.51669C6.21059 7.39447 6.05792 7.33336 5.87481 7.33336C5.6917 7.33336 5.53326 7.40003 5.39948 7.53336C5.27726 7.65558 5.21615 7.81114 5.21615 8.00003C5.21615 8.18892 5.27726 8.34447 5.39948 8.46669L6.83281 9.90003C6.96615 10.0334 7.1217 10.1 7.29948 10.1C7.47726 10.1 7.63281 10.0334 7.76615 9.90003L10.5995 7.06669C10.7328 6.93336 10.7966 6.7778 10.7908 6.60003C10.785 6.42225 10.7213 6.26669 10.5995 6.13336C10.4661 6.00003 10.3079 5.93069 10.1248 5.92536C9.9417 5.92003 9.78326 5.9838 9.64948 6.11669L7.29948 8.46669ZM5.43281 14.5L4.46615 12.8667L2.63281 12.4667C2.46615 12.4334 2.33281 12.3474 2.23281 12.2087C2.13281 12.07 2.09392 11.9171 2.11615 11.75L2.29948 9.86669L1.04948 8.43336C0.938368 8.31114 0.882812 8.16669 0.882812 8.00003C0.882812 7.83336 0.938368 7.68892 1.04948 7.56669L2.29948 6.13336L2.11615 4.25003C2.09392 4.08336 2.13281 3.93047 2.23281 3.79136C2.33281 3.65225 2.46615 3.56625 2.63281 3.53336L4.46615 3.13336L5.43281 1.50003C5.5217 1.35558 5.64392 1.25825 5.79948 1.20803C5.95503 1.1578 6.11059 1.16625 6.26615 1.23336L7.99948 1.96669L9.73281 1.23336C9.88837 1.16669 10.0439 1.15825 10.1995 1.20803C10.355 1.2578 10.4773 1.35514 10.5661 1.50003L11.5328 3.13336L13.3661 3.53336C13.5328 3.56669 13.6661 3.65292 13.7661 3.79203C13.8661 3.93114 13.905 4.0838 13.8828 4.25003L13.6995 6.13336L14.9495 7.56669C15.0606 7.68892 15.1161 7.83336 15.1161 8.00003C15.1161 8.16669 15.0606 8.31114 14.9495 8.43336L13.6995 9.86669L13.8828 11.75C13.905 11.9167 13.8661 12.0696 13.7661 12.2087C13.6661 12.3478 13.5328 12.4338 13.3661 12.4667L11.5328 12.8667L10.5661 14.5C10.4773 14.6445 10.355 14.7418 10.1995 14.792C10.0439 14.8422 9.88837 14.8338 9.73281 14.7667L7.99948 14.0334L6.26615 14.7667C6.11059 14.8334 5.95503 14.8418 5.79948 14.792C5.64392 14.7422 5.5217 14.6449 5.43281 14.5Z" fill="#2848A5"/>
</svg>
