<svg width="18" height="18" viewBox="0 0 18 18" fill="none" xmlns="http://www.w3.org/2000/svg">
<path d="M2.25 15.75V12.5625L12.15 2.68125C12.3 2.54375 12.4658 2.4375 12.6473 2.3625C12.8288 2.2875 13.0192 2.25 13.2188 2.25C13.4183 2.25 13.612 2.2875 13.8 2.3625C13.988 2.4375 14.1505 2.55 14.2875 2.7L15.3187 3.75C15.4687 3.8875 15.5783 4.05 15.6473 4.2375C15.7163 4.425 15.7505 4.6125 15.75 4.8C15.75 5 15.7158 5.19075 15.6473 5.37225C15.5788 5.55375 15.4692 5.71925 15.3187 5.86875L5.4375 15.75H2.25ZM13.2 5.85L14.25 4.8L13.2 3.75L12.15 4.8L13.2 5.85Z" fill="#516178"/>
</svg>
