<svg width="24" height="24" viewBox="0 0 24 24" fill="none" xmlns="http://www.w3.org/2000/svg">
<path d="M14.1081 2.20302C13.5207 2.07728 13 2.55099 13 3.15163C13 3.66462 13.3851 4.09019 13.8842 4.20878C17.7994 5.13906 20.463 8.88103 19.96 12.97C19.5377 16.3118 17.0925 19.0215 13.878 19.7758C13.383 19.8919 13 20.3131 13 20.8216C13 21.4151 13.5147 21.883 14.0952 21.76C19.0207 20.7166 22.4628 16.1278 21.9501 11C21.5358 6.62742 18.3081 3.10222 14.1081 2.20302ZM11 3.17783C11 2.57884 10.4818 2.10601 9.89573 2.22953C8.71365 2.47867 7.58449 2.9394 6.56784 3.59982C6.06334 3.92754 6.0268 4.62925 6.44482 5.06189C6.81597 5.44602 7.41537 5.47725 7.86863 5.19464C8.56811 4.75851 9.33305 4.43304 10.1347 4.22972C10.6251 4.10537 11 3.68366 11 3.17783ZM5.05173 6.46171C4.62743 6.03741 3.92543 6.06943 3.59877 6.57277C2.94 7.58782 2.47284 8.71525 2.22061 9.89878C2.09609 10.4831 2.56758 11 3.165 11C3.67172 11 4.09349 10.6229 4.21468 10.1308C4.4137 9.3228 4.73591 8.54915 5.17336 7.83968C5.44361 7.40138 5.41583 6.82581 5.05173 6.46171ZM16.03 9.03003C15.7373 8.73732 15.2628 8.73732 14.97 9.03003L11.68 12.32C11.0946 12.9055 10.1455 12.9055 9.56005 12.32L9.03005 11.79C8.73734 11.4973 8.26276 11.4973 7.97005 11.79C7.67734 12.0827 7.67734 12.5573 7.97005 12.85L9.03005 13.91C9.90818 14.7882 11.3319 14.7882 12.21 13.91L16.03 10.09C16.3228 9.79732 16.3228 9.32274 16.03 9.03003ZM3.17491 13C2.5784 13 2.10854 13.5175 2.2344 14.1006C2.48967 15.2832 2.95607 16.4076 3.6099 17.4217C3.93528 17.9264 4.6385 17.959 5.06162 17.5329C5.42075 17.1712 5.44837 16.6021 5.18121 16.1681C4.74341 15.4568 4.41965 14.6813 4.22178 13.8698C4.10187 13.378 3.68111 13 3.17491 13ZM7.8082 18.8642C7.38678 18.6028 6.83432 18.6246 6.47622 18.9677C6.04638 19.3795 6.0689 20.0777 6.56583 20.4054C7.58124 21.0751 8.7105 21.5541 9.89778 21.8185C10.4804 21.9482 11 21.4792 11 20.8823C11 20.3778 10.6233 19.9583 10.133 19.839C9.31148 19.639 8.52675 19.3099 7.8082 18.8642Z" fill="#2848A5"/>
</svg>
