<svg width="14" height="3" viewBox="0 0 14 3" fill="none" xmlns="http://www.w3.org/2000/svg">
<path d="M2.96296 1.48148C2.96296 1.87439 2.80688 2.25122 2.52905 2.52905C2.25122 2.80688 1.87439 2.96296 1.48148 2.96296C1.08857 2.96296 0.711747 2.80688 0.433916 2.52905C0.156084 2.25122 0 1.87439 0 1.48148C0 1.08857 0.156084 0.711748 0.433916 0.433916C0.711747 0.156085 1.08857 0 1.48148 0C1.87439 0 2.25122 0.156085 2.52905 0.433916C2.80688 0.711748 2.96296 1.08857 2.96296 1.48148ZM8.14815 1.48148C8.14815 1.87439 7.99206 2.25122 7.71423 2.52905C7.4364 2.80688 7.05958 2.96296 6.66667 2.96296C6.27375 2.96296 5.89693 2.80688 5.6191 2.52905C5.34127 2.25122 5.18518 1.87439 5.18518 1.48148C5.18518 1.08857 5.34127 0.711748 5.6191 0.433916C5.89693 0.156085 6.27375 0 6.66667 0C7.05958 0 7.4364 0.156085 7.71423 0.433916C7.99206 0.711748 8.14815 1.08857 8.14815 1.48148ZM13.3333 1.48148C13.3333 1.87439 13.1772 2.25122 12.8994 2.52905C12.6216 2.80688 12.2448 2.96296 11.8519 2.96296C11.4589 2.96296 11.0821 2.80688 10.8043 2.52905C10.5265 2.25122 10.3704 1.87439 10.3704 1.48148C10.3704 1.08857 10.5265 0.711748 10.8043 0.433916C11.0821 0.156085 11.4589 0 11.8519 0C12.2448 0 12.6216 0.156085 12.8994 0.433916C13.1772 0.711748 13.3333 1.08857 13.3333 1.48148Z" fill="#243C7C"/>
</svg>
