<svg width="24" height="24" viewBox="0 0 24 24" fill="none" xmlns="http://www.w3.org/2000/svg">
<path d="M5 5.5C4.27065 5.5 3.57118 5.78973 3.05546 6.30546C2.53973 6.82118 2.25 7.52065 2.25 8.25V15.75C2.25 16.4793 2.53973 17.1788 3.05546 17.6945C3.57118 18.2103 4.27065 18.5 5 18.5H13.5C14.2293 18.5 14.9288 18.2103 15.4445 17.6945C15.9603 17.1788 16.25 16.4793 16.25 15.75V14.156L19.669 17.201C20.474 17.918 21.75 17.346 21.75 16.267V7.365C21.75 6.285 20.474 5.714 19.669 6.431L16.25 9.476V8.25C16.25 7.52065 15.9603 6.82118 15.4445 6.30546C14.9288 5.78973 14.2293 5.5 13.5 5.5H5Z" fill="#424E62"/>
</svg>
