<svg width="24" height="24" viewBox="0 0 24 24" fill="none" xmlns="http://www.w3.org/2000/svg">
<path fill-rule="evenodd" clip-rule="evenodd" d="M9.47719 6.84059C8.81599 7.33619 8.51719 7.93019 8.51719 8.48459C8.51719 9.03899 8.81599 9.63419 9.47719 10.131C10.1396 10.6278 11.1092 10.971 12.2312 10.971C12.5494 10.971 12.8547 11.0974 13.0797 11.3225C13.3048 11.5475 13.4312 11.8527 13.4312 12.171C13.4312 12.4892 13.3048 12.7945 13.0797 13.0195C12.8547 13.2446 12.5494 13.371 12.2312 13.371C10.64 13.371 9.15319 12.8886 8.03719 12.051C6.92119 11.2134 6.11719 9.96539 6.11719 8.48579C6.11719 7.00619 6.92119 5.75699 8.03719 4.91939C9.15319 4.08299 10.6412 3.60059 12.2312 3.60059C14.6948 3.60059 17.024 4.78019 17.9504 6.74459C18.0176 6.8872 18.0561 7.04166 18.0636 7.19914C18.0711 7.35662 18.0475 7.51404 17.9942 7.66241C17.9409 7.81078 17.8589 7.94719 17.7528 8.06386C17.6468 8.18053 17.5188 8.27518 17.3762 8.34239C17.2336 8.4096 17.0791 8.44806 16.9216 8.45558C16.7642 8.46309 16.6067 8.43952 16.4584 8.3862C16.31 8.33288 16.1736 8.25086 16.0569 8.14482C15.9402 8.03878 15.8456 7.9108 15.7784 7.76819C15.3584 6.87179 14.048 6.00059 12.2324 6.00059C11.1104 6.00059 10.1396 6.34379 9.47719 6.84059Z" fill="#2848A5"/>
<path fill-rule="evenodd" clip-rule="evenodd" d="M14.5888 17.4998C15.25 17.0042 15.5476 16.4102 15.5476 15.8558C15.5476 15.3014 15.25 14.705 14.5876 14.2094C13.9264 13.7126 12.9556 13.3694 11.8348 13.3694C11.5165 13.3694 11.2113 13.243 10.9863 13.0179C10.7612 12.7929 10.6348 12.4877 10.6348 12.1694C10.6348 11.8511 10.7612 11.5459 10.9863 11.3209C11.2113 11.0958 11.5165 10.9694 11.8348 10.9694C13.426 10.9694 14.9128 11.4518 16.0288 12.2894C17.1448 13.127 17.9476 14.375 17.9476 15.8546C17.9476 17.3342 17.1448 18.5834 16.0276 19.4198C14.9116 20.2574 13.426 20.7398 11.8348 20.7398C9.37119 20.7398 7.04079 19.5602 6.11559 17.5946C5.97985 17.3067 5.96403 16.9767 6.0716 16.6772C6.17917 16.3777 6.40132 16.1331 6.68919 15.9974C6.97706 15.8617 7.30705 15.8458 7.60659 15.9534C7.90612 16.061 8.15065 16.2831 8.28639 16.571C8.70879 17.4686 10.0192 18.3398 11.8348 18.3398C12.9568 18.3398 13.9264 17.9966 14.5888 17.4998ZM12.0004 1.2002C12.3187 1.2002 12.6239 1.32662 12.8489 1.55167C13.074 1.77671 13.2004 2.08194 13.2004 2.4002V3.6002C13.2004 3.91846 13.074 4.22368 12.8489 4.44872C12.6239 4.67377 12.3187 4.8002 12.0004 4.8002C11.6821 4.8002 11.3769 4.67377 11.1519 4.44872C10.9268 4.22368 10.8004 3.91846 10.8004 3.6002V2.4002C10.8004 2.08194 10.9268 1.77671 11.1519 1.55167C11.3769 1.32662 11.6821 1.2002 12.0004 1.2002Z" fill="#2848A5"/>
<path fill-rule="evenodd" clip-rule="evenodd" d="M12.0008 19.2002C12.319 19.2002 12.6243 19.3266 12.8493 19.5517C13.0744 19.7767 13.2008 20.0819 13.2008 20.4002V21.6002C13.2008 21.9185 13.0744 22.2237 12.8493 22.4487C12.6243 22.6738 12.319 22.8002 12.0008 22.8002C11.6825 22.8002 11.3773 22.6738 11.1523 22.4487C10.9272 22.2237 10.8008 21.9185 10.8008 21.6002V20.4002C10.8008 20.0819 10.9272 19.7767 11.1523 19.5517C11.3773 19.3266 11.6825 19.2002 12.0008 19.2002Z" fill="#2848A5"/>
</svg>
