<svg width="24" height="24" viewBox="0 0 24 24" fill="none" xmlns="http://www.w3.org/2000/svg">
<path d="M19.125 8.25C19.125 8.4725 19.059 8.69001 18.9354 8.87502C18.8118 9.06002 18.6361 9.20422 18.4305 9.28936C18.225 9.37451 17.9988 9.39679 17.7805 9.35338C17.5623 9.30998 17.3618 9.20283 17.2045 9.0455C17.0472 8.88816 16.94 8.68771 16.8966 8.46948C16.8532 8.25125 16.8755 8.02505 16.9606 7.81948C17.0458 7.61391 17.19 7.43821 17.375 7.3146C17.56 7.19098 17.7775 7.125 18 7.125C18.2984 7.125 18.5845 7.24353 18.7955 7.4545C19.0065 7.66548 19.125 7.95163 19.125 8.25ZM18 14.625C17.7775 14.625 17.56 14.691 17.375 14.8146C17.19 14.9382 17.0458 15.1139 16.9606 15.3195C16.8755 15.525 16.8532 15.7512 16.8966 15.9695C16.94 16.1877 17.0472 16.3882 17.2045 16.5455C17.3618 16.7028 17.5623 16.81 17.7805 16.8534C17.9988 16.8968 18.225 16.8745 18.4305 16.7894C18.6361 16.7042 18.8118 16.56 18.9354 16.375C19.059 16.19 19.125 15.9725 19.125 15.75C19.125 15.4516 19.0065 15.1655 18.7955 14.9545C18.5845 14.7435 18.2984 14.625 18 14.625ZM9 9.75C8.70333 9.75 8.41332 9.83797 8.16665 10.0028C7.91997 10.1676 7.72771 10.4019 7.61418 10.676C7.50065 10.9501 7.47094 11.2517 7.52882 11.5426C7.5867 11.8336 7.72956 12.1009 7.93934 12.3107C8.14912 12.5204 8.41639 12.6633 8.70736 12.7212C8.99834 12.7791 9.29994 12.7494 9.57403 12.6358C9.84811 12.5223 10.0824 12.33 10.2472 12.0834C10.412 11.8367 10.5 11.5467 10.5 11.25C10.5 10.8522 10.342 10.4706 10.0607 10.1893C9.77936 9.90804 9.39782 9.75 9 9.75ZM21.75 5.25V18.75C21.75 19.1478 21.592 19.5294 21.3107 19.8107C21.0294 20.092 20.6478 20.25 20.25 20.25H3.75C3.35218 20.25 2.97064 20.092 2.68934 19.8107C2.40804 19.5294 2.25 19.1478 2.25 18.75V5.25C2.25 4.85218 2.40804 4.47064 2.68934 4.18934C2.97064 3.90804 3.35218 3.75 3.75 3.75H20.25C20.6478 3.75 21.0294 3.90804 21.3107 4.18934C21.592 4.47064 21.75 4.85218 21.75 5.25ZM15.75 11.25H20.25V5.25H15.75V11.25ZM12.7266 15.5625C12.4839 14.6563 11.9084 13.875 11.115 13.3744C11.5363 12.9555 11.8238 12.421 11.941 11.8386C12.0582 11.2562 11.9999 10.652 11.7733 10.1028C11.5468 9.55361 11.1623 9.08402 10.6686 8.75358C10.1748 8.42315 9.5941 8.24675 9 8.24675C8.4059 8.24675 7.82517 8.42315 7.33143 8.75358C6.8377 9.08402 6.45319 9.55361 6.22666 10.1028C6.00012 10.652 5.94175 11.2562 6.05896 11.8386C6.17616 12.421 6.46366 12.9555 6.885 13.3744C6.09211 13.8755 5.51681 14.6566 5.27344 15.5625C5.22371 15.7552 5.25257 15.9598 5.35366 16.1312C5.45475 16.3026 5.6198 16.4268 5.8125 16.4766C6.0052 16.5263 6.20975 16.4974 6.38118 16.3963C6.55259 16.2952 6.67683 16.1302 6.72656 15.9375C6.97406 14.9766 7.95094 14.25 9 14.25C10.0491 14.25 11.0269 14.9747 11.2734 15.9375C11.3232 16.1302 11.4474 16.2952 11.6188 16.3963C11.7902 16.4974 11.9948 16.5263 12.1875 16.4766C12.3802 16.4268 12.5452 16.3026 12.6463 16.1312C12.7474 15.9598 12.7763 15.7552 12.7266 15.5625ZM20.25 18.75V12.75H15.75V18.75H20.25Z" fill="#2848A5"/>
</svg>
