<svg width="18" height="18" viewBox="0 0 18 18" fill="none" xmlns="http://www.w3.org/2000/svg">
<path d="M14.3438 6.1875C14.3438 6.35438 14.2943 6.51751 14.2016 6.65626C14.1088 6.79502 13.9771 6.90316 13.8229 6.96702C13.6687 7.03088 13.4991 7.04759 13.3354 7.01504C13.1717 6.98248 13.0214 6.90212 12.9034 6.78412C12.7854 6.66612 12.705 6.51578 12.6725 6.35211C12.6399 6.18844 12.6566 6.01879 12.7205 5.86461C12.7843 5.71044 12.8925 5.57866 13.0312 5.48595C13.17 5.39323 13.3331 5.34375 13.5 5.34375C13.7238 5.34375 13.9384 5.43264 14.0966 5.59088C14.2549 5.74911 14.3438 5.96372 14.3438 6.1875ZM13.5 10.9688C13.3331 10.9688 13.17 11.0182 13.0312 11.1109C12.8925 11.2037 12.7843 11.3354 12.7205 11.4896C12.6566 11.6438 12.6399 11.8134 12.6725 11.9771C12.705 12.1408 12.7854 12.2911 12.9034 12.4091C13.0214 12.5271 13.1717 12.6075 13.3354 12.64C13.4991 12.6726 13.6687 12.6559 13.8229 12.592C13.9771 12.5282 14.1088 12.42 14.2016 12.2813C14.2943 12.1425 14.3438 11.9794 14.3438 11.8125C14.3438 11.5887 14.2549 11.3741 14.0966 11.2159C13.9384 11.0576 13.7238 10.9688 13.5 10.9688ZM6.75 7.3125C6.5275 7.3125 6.30999 7.37848 6.12498 7.5021C5.93998 7.62571 5.79578 7.80141 5.71064 8.00698C5.62549 8.21255 5.60321 8.43875 5.64662 8.65698C5.69002 8.87521 5.79717 9.07566 5.9545 9.233C6.11184 9.39033 6.31229 9.49748 6.53052 9.54088C6.74875 9.58429 6.97495 9.56201 7.18052 9.47686C7.38609 9.39172 7.56179 9.24752 7.6854 9.06252C7.80902 8.87751 7.875 8.66 7.875 8.4375C7.875 8.13913 7.75647 7.85298 7.5455 7.642C7.33452 7.43103 7.04837 7.3125 6.75 7.3125ZM16.3125 3.9375V14.0625C16.3125 14.3609 16.194 14.647 15.983 14.858C15.772 15.069 15.4859 15.1875 15.1875 15.1875H2.8125C2.51413 15.1875 2.22798 15.069 2.017 14.858C1.80603 14.647 1.6875 14.3609 1.6875 14.0625V3.9375C1.6875 3.63913 1.80603 3.35298 2.017 3.142C2.22798 2.93103 2.51413 2.8125 2.8125 2.8125H15.1875C15.4859 2.8125 15.772 2.93103 15.983 3.142C16.194 3.35298 16.3125 3.63913 16.3125 3.9375ZM11.8125 8.4375H15.1875V3.9375H11.8125V8.4375ZM9.54492 11.6719C9.3629 10.9922 8.9313 10.4062 8.33625 10.0308C8.65226 9.71665 8.86788 9.31576 8.95578 8.87894C9.04368 8.44212 8.99991 7.98903 8.83001 7.57712C8.6601 7.16521 8.37172 6.81301 8.00142 6.56519C7.63112 6.31736 7.19558 6.18506 6.75 6.18506C6.30442 6.18506 5.86888 6.31736 5.49858 6.56519C5.12828 6.81301 4.8399 7.16521 4.66999 7.57712C4.50009 7.98903 4.45632 8.44212 4.54422 8.87894C4.63212 9.31576 4.84774 9.71665 5.16375 10.0308C4.56909 10.4066 4.13761 10.9925 3.95508 11.6719C3.91778 11.8164 3.93942 11.9698 4.01525 12.0984C4.09107 12.2269 4.21485 12.3201 4.35938 12.3574C4.5039 12.3947 4.65732 12.3731 4.78588 12.2973C4.91445 12.2214 5.00763 12.0976 5.04492 11.9531C5.23055 11.2324 5.9632 10.6875 6.75 10.6875C7.5368 10.6875 8.27016 11.231 8.45508 11.9531C8.49237 12.0976 8.58555 12.2214 8.71412 12.2973C8.84268 12.3731 8.9961 12.3947 9.14062 12.3574C9.28515 12.3201 9.40893 12.2269 9.48475 12.0984C9.56058 11.9698 9.58222 11.8164 9.54492 11.6719ZM15.1875 14.0625V9.5625H11.8125V14.0625H15.1875Z" fill="white"/>
</svg>
