<svg width="24" height="24" viewBox="0 0 24 24" fill="none" xmlns="http://www.w3.org/2000/svg">
<path fill-rule="evenodd" clip-rule="evenodd" d="M7.52997 7.02985C7.66245 6.88767 7.73457 6.69963 7.73115 6.50532C7.72772 6.31102 7.64901 6.12564 7.51159 5.98822C7.37418 5.85081 7.18879 5.7721 6.99449 5.76867C6.80019 5.76524 6.61215 5.83737 6.46997 5.96985L4.99997 7.43985L4.52997 6.96985C4.3878 6.83737 4.19975 6.76524 4.00545 6.76867C3.81115 6.7721 3.62576 6.85081 3.48835 6.98822C3.35094 7.12564 3.27222 7.31102 3.2688 7.50532C3.26537 7.69963 3.33749 7.88767 3.46997 8.02985L4.46997 9.02985C4.6106 9.1703 4.80122 9.24919 4.99997 9.24919C5.19872 9.24919 5.38935 9.1703 5.52997 9.02985L7.52997 7.02985ZM9.99997 7.24985C9.80106 7.24985 9.61029 7.32886 9.46964 7.46952C9.32899 7.61017 9.24997 7.80093 9.24997 7.99985C9.24997 8.19876 9.32899 8.38952 9.46964 8.53018C9.61029 8.67083 9.80106 8.74985 9.99997 8.74985H20C20.1989 8.74985 20.3897 8.67083 20.5303 8.53018C20.671 8.38952 20.75 8.19876 20.75 7.99985C20.75 7.80093 20.671 7.61017 20.5303 7.46952C20.3897 7.32886 20.1989 7.24985 20 7.24985H9.99997ZM9.99997 11.2498C9.80106 11.2498 9.61029 11.3289 9.46964 11.4695C9.32899 11.6102 9.24997 11.8009 9.24997 11.9998C9.24997 12.1988 9.32899 12.3895 9.46964 12.5302C9.61029 12.6708 9.80106 12.7498 9.99997 12.7498H20C20.1989 12.7498 20.3897 12.6708 20.5303 12.5302C20.671 12.3895 20.75 12.1988 20.75 11.9998C20.75 11.8009 20.671 11.6102 20.5303 11.4695C20.3897 11.3289 20.1989 11.2498 20 11.2498H9.99997ZM20 17.2498H10.125C9.92606 17.2498 9.73529 17.1708 9.59464 17.0302C9.45399 16.8895 9.37497 16.6988 9.37497 16.4998C9.37497 16.3009 9.45399 16.1102 9.59464 15.9695C9.73529 15.8289 9.92606 15.7498 10.125 15.7498H20C20.1989 15.7498 20.3897 15.8289 20.5303 15.9695C20.671 16.1102 20.75 16.3009 20.75 16.4998C20.75 16.6988 20.671 16.8895 20.5303 17.0302C20.3897 17.1708 20.1989 17.2498 20 17.2498ZM7.52997 9.96985C7.67042 10.1105 7.74931 10.3011 7.74931 10.4998C7.74931 10.6986 7.67042 10.8892 7.52997 11.0298L5.52997 13.0298C5.38935 13.1703 5.19872 13.2492 4.99997 13.2492C4.80122 13.2492 4.6106 13.1703 4.46997 13.0298L3.46997 12.0298C3.39628 11.9612 3.33718 11.8784 3.29619 11.7864C3.2552 11.6944 3.23316 11.5951 3.23138 11.4944C3.2296 11.3937 3.24813 11.2936 3.28585 11.2002C3.32357 11.1069 3.37971 11.022 3.45093 10.9508C3.52215 10.8796 3.60698 10.8234 3.70037 10.7857C3.79376 10.748 3.89379 10.7295 3.99449 10.7313C4.0952 10.733 4.19451 10.7551 4.28651 10.7961C4.37851 10.8371 4.46131 10.8962 4.52997 10.9698L4.99997 11.4398L6.46997 9.96985C6.6106 9.8294 6.80122 9.75051 6.99997 9.75051C7.19872 9.75051 7.38935 9.8294 7.52997 9.96985ZM7.52997 16.0298C7.60366 15.9612 7.66276 15.8784 7.70375 15.7864C7.74474 15.6944 7.76679 15.5951 7.76856 15.4944C7.77034 15.3937 7.75181 15.2936 7.71409 15.2002C7.67637 15.1069 7.62023 15.022 7.54901 14.9508C7.47779 14.8796 7.39296 14.8234 7.29957 14.7857C7.20618 14.748 7.10615 14.7295 7.00545 14.7313C6.90475 14.733 6.80543 14.7551 6.71343 14.7961C6.62143 14.8371 6.53863 14.8962 6.46997 14.9698L4.99997 16.4398L4.52997 15.9698C4.3878 15.8374 4.19975 15.7652 4.00545 15.7687C3.81115 15.7721 3.62576 15.8508 3.48835 15.9882C3.35094 16.1256 3.27222 16.311 3.2688 16.5053C3.26537 16.6996 3.33749 16.8877 3.46997 17.0298L4.46997 18.0298C4.6106 18.1703 4.80122 18.2492 4.99997 18.2492C5.19872 18.2492 5.38935 18.1703 5.52997 18.0298L7.52997 16.0298Z" fill="#2848A5"/>
</svg>
