<svg width="15" height="13" viewBox="0 0 15 13" fill="none" xmlns="http://www.w3.org/2000/svg">
<path fill-rule="evenodd" clip-rule="evenodd" d="M3.75 7.5C4.12843 7.49988 4.49293 7.6428 4.77041 7.90012C5.0479 8.15744 5.21787 8.51013 5.24625 8.8875L5.25 9V11.25C5.25012 11.6284 5.1072 11.9929 4.84988 12.2704C4.59256 12.5479 4.23987 12.7179 3.8625 12.7463L3.75 12.75H1.5C1.12157 12.7501 0.757075 12.6072 0.479589 12.3499C0.202103 12.0926 0.0321326 11.7399 0.00375016 11.3625L7.5201e-08 11.25V9C-0.000119684 8.62157 0.142805 8.25708 0.400123 7.97959C0.657441 7.7021 1.01013 7.53213 1.3875 7.50375L1.5 7.5H3.75ZM10.5 10.5C10.6912 10.5002 10.875 10.5734 11.014 10.7046C11.153 10.8359 11.2367 11.0152 11.2479 11.206C11.2591 11.3969 11.197 11.5848 11.0743 11.7314C10.9516 11.878 10.7776 11.9722 10.5878 11.9948L10.5 12H7.5C7.30884 11.9998 7.12498 11.9266 6.98597 11.7954C6.84697 11.6641 6.76332 11.4848 6.75212 11.294C6.74092 11.1031 6.80301 10.9152 6.9257 10.7686C7.04839 10.622 7.22243 10.5278 7.41225 10.5052L7.5 10.5H10.5ZM3.75 9H1.5V11.25H3.75V9ZM13.5 7.5C13.6989 7.5 13.8897 7.57902 14.0303 7.71967C14.171 7.86032 14.25 8.05109 14.25 8.25C14.25 8.44891 14.171 8.63968 14.0303 8.78033C13.8897 8.92098 13.6989 9 13.5 9H7.5C7.30109 9 7.11032 8.92098 6.96967 8.78033C6.82902 8.63968 6.75 8.44891 6.75 8.25C6.75 8.05109 6.82902 7.86032 6.96967 7.71967C7.11032 7.57902 7.30109 7.5 7.5 7.5H13.5ZM3.75 0C4.14782 0 4.52936 0.158035 4.81066 0.43934C5.09196 0.720644 5.25 1.10218 5.25 1.5V3.75C5.25 4.14782 5.09196 4.52936 4.81066 4.81066C4.52936 5.09196 4.14782 5.25 3.75 5.25H1.5C1.10218 5.25 0.720644 5.09196 0.43934 4.81066C0.158035 4.52936 7.5201e-08 4.14782 7.5201e-08 3.75V1.5C7.5201e-08 1.10218 0.158035 0.720644 0.43934 0.43934C0.720644 0.158035 1.10218 0 1.5 0H3.75ZM10.5 3C10.6912 3.00021 10.875 3.07341 11.014 3.20464C11.153 3.33586 11.2367 3.51521 11.2479 3.70605C11.2591 3.89688 11.197 4.08478 11.0743 4.23137C10.9516 4.37796 10.7776 4.47217 10.5878 4.49475L10.5 4.5H7.5C7.30884 4.49979 7.12498 4.42659 6.98597 4.29536C6.84697 4.16414 6.76332 3.98479 6.75212 3.79395C6.74092 3.60312 6.80301 3.41522 6.9257 3.26863C7.04839 3.12204 7.22243 3.02783 7.41225 3.00525L7.5 3H10.5ZM3.75 1.5H1.5V3.75H3.75V1.5ZM13.5 0C13.6912 0.000212031 13.875 0.0734094 14.014 0.204636C14.153 0.335863 14.2367 0.515215 14.2479 0.706046C14.2591 0.896877 14.197 1.08478 14.0743 1.23137C13.9516 1.37796 13.7776 1.47217 13.5878 1.49475L13.5 1.5H7.5C7.30884 1.49979 7.12498 1.42659 6.98597 1.29536C6.84697 1.16414 6.76332 0.984785 6.75212 0.793954C6.74092 0.603123 6.80301 0.415215 6.9257 0.268626C7.04839 0.122036 7.22243 0.0278277 7.41225 0.00524998L7.5 0H13.5Z" fill="white"/>
</svg>
