<svg width="24" height="24" viewBox="0 0 24 24" fill="none" xmlns="http://www.w3.org/2000/svg">
  <path d="M12.22 2H11.78C11.23 2 10.74 2.3 10.48 2.76L9.63 4.25C9.37 4.7 9.45 5.27 9.85 5.62L10.97 6.62C11.29 6.9 11.29 7.39 10.97 7.67L9.85 8.67C9.45 9.02 9.38 9.59 9.63 10.05L10.48 11.53C10.74 11.99 11.23 12.28 11.78 12.28H12.22C12.77 12.28 13.26 11.98 13.52 11.52L14.37 10.03C14.63 9.58 14.55 9.01 14.15 8.66L13.03 7.66C12.71 7.38 12.71 6.89 13.03 6.61L14.15 5.61C14.55 5.25 14.62 4.69 14.37 4.23L13.52 2.75C13.26 2.29 12.77 2 12.22 2Z" stroke="currentColor" stroke-width="2" stroke-linecap="round" stroke-linejoin="round"/>
  <circle cx="12" cy="7.14" r="1.5" fill="currentColor"/>
</svg>
