<svg width="24" height="24" viewBox="0 0 24 24" fill="none" xmlns="http://www.w3.org/2000/svg">
  <path d="M9 12L11 14L15 10M20.618 5.984C21.4143 7.05669 22 8.28191 22 9.5C22 12.5376 19.5376 15 16.5 15C15.9714 15 15.4617 14.9308 14.9779 14.8011M3.38197 5.984C2.58571 7.05669 2 8.28191 2 9.5C2 12.5376 4.46243 15 7.5 15C8.02858 15 8.53834 14.9308 9.02206 14.8011M9.02206 14.8011C10.1272 16.6462 12.0093 18 14.2 18H15.8C18.6719 18 21 15.6719 21 12.8V12C21 8.13401 17.866 5 14 5H10C6.13401 5 3 8.13401 3 12V12.8C3 15.6719 5.32812 18 8.2 18H9.8C10.7375 18 11.6149 17.7389 12.3594 17.2889M9.02206 14.8011C9.00742 14.8671 9 14.9329 9 15C9 16.1046 9.89543 17 11 17H13C14.1046 17 15 16.1046 15 15C15 14.9329 14.9926 14.8671 14.9779 14.8011M14.9779 14.8011C13.8728 16.6462 11.9907 18 9.8 18" stroke="currentColor" stroke-width="2" stroke-linecap="round" stroke-linejoin="round"/>
</svg>
