<svg width="20" height="17" viewBox="0 0 20 17" fill="none" xmlns="http://www.w3.org/2000/svg">
<path d="M18 0H1.5C1.10218 0 0.720644 0.158035 0.43934 0.43934C0.158035 0.720644 0 1.10218 0 1.5V15C0 15.3978 0.158035 15.7794 0.43934 16.0607C0.720644 16.342 1.10218 16.5 1.5 16.5H2.75531C2.89726 16.5 3.0363 16.4598 3.15628 16.384C3.27627 16.3081 3.37227 16.1998 3.43313 16.0716C3.79783 15.3016 4.37363 14.6509 5.09357 14.1953C5.81351 13.7397 6.648 13.4978 7.5 13.4978C8.352 13.4978 9.18649 13.7397 9.90643 14.1953C10.6264 14.6509 11.2022 15.3016 11.5669 16.0716C11.6277 16.1998 11.7237 16.3081 11.8437 16.384C11.9637 16.4598 12.1027 16.5 12.2447 16.5H18C18.3978 16.5 18.7794 16.342 19.0607 16.0607C19.342 15.7794 19.5 15.3978 19.5 15V1.5C19.5 1.10218 19.342 0.720644 19.0607 0.43934C18.7794 0.158035 18.3978 0 18 0ZM7.5 12C6.90666 12 6.32664 11.8241 5.83329 11.4944C5.33994 11.1648 4.95542 10.6962 4.72836 10.1481C4.5013 9.59987 4.44189 8.99667 4.55764 8.41473C4.6734 7.83279 4.95912 7.29824 5.37868 6.87868C5.79824 6.45912 6.33279 6.1734 6.91473 6.05764C7.49667 5.94189 8.09987 6.0013 8.64805 6.22836C9.19623 6.45542 9.66476 6.83994 9.99441 7.33329C10.3241 7.82664 10.5 8.40666 10.5 9C10.5 9.79565 10.1839 10.5587 9.62132 11.1213C9.05871 11.6839 8.29565 12 7.5 12ZM18 15H12.6966C12.3695 14.4363 11.9528 13.9297 11.4628 13.5H15.75C15.9489 13.5 16.1397 13.421 16.2803 13.2803C16.421 13.1397 16.5 12.9489 16.5 12.75V3.75C16.5 3.55109 16.421 3.36032 16.2803 3.21967C16.1397 3.07902 15.9489 3 15.75 3H3.75C3.55109 3 3.36032 3.07902 3.21967 3.21967C3.07902 3.36032 3 3.55109 3 3.75V12.75C2.99992 12.9163 3.05513 13.078 3.15696 13.2095C3.25878 13.341 3.40145 13.435 3.5625 13.4766C3.06111 13.9109 2.6356 14.4258 2.30344 15H1.5V1.5H18V15Z" fill="#4F4F4F"/>
</svg>
