<svg width="18" height="18" viewBox="0 0 18 18" fill="none" xmlns="http://www.w3.org/2000/svg">
<path d="M7.22223 8.88932C7.22223 8.4473 7.39782 8.02337 7.71038 7.71081C8.02295 7.39825 8.44687 7.22266 8.8889 7.22266C9.33092 7.22266 9.75485 7.39825 10.0674 7.71081C10.38 8.02337 10.5556 8.4473 10.5556 8.88932C10.5556 9.33135 10.38 9.75527 10.0674 10.0678C9.75485 10.3804 9.33092 10.556 8.8889 10.556C8.44687 10.556 8.02295 10.3804 7.71038 10.0678C7.39782 9.75527 7.22223 9.33135 7.22223 8.88932Z" fill="#243C7C"/>
<path fill-rule="evenodd" clip-rule="evenodd" d="M1.48148 8.88882C1.48148 10.1036 1.79629 10.5118 2.42592 11.3303C3.68296 12.9629 5.79111 14.8147 8.88888 14.8147C11.9867 14.8147 14.0948 12.9629 15.3518 11.3303C15.9815 10.5125 16.2963 10.1029 16.2963 8.88882C16.2963 7.674 15.9815 7.26585 15.3518 6.44734C14.0948 4.81474 11.9867 2.96289 8.88888 2.96289C5.79111 2.96289 3.68296 4.81474 2.42592 6.44734C1.79629 7.26659 1.48148 7.67474 1.48148 8.88882ZM8.88888 6.11104C8.15217 6.11104 7.44563 6.4037 6.9247 6.92463C6.40376 7.44557 6.11111 8.1521 6.11111 8.88882C6.11111 9.62553 6.40376 10.3321 6.9247 10.853C7.44563 11.3739 8.15217 11.6666 8.88888 11.6666C9.6256 11.6666 10.3321 11.3739 10.8531 10.853C11.374 10.3321 11.6667 9.62553 11.6667 8.88882C11.6667 8.1521 11.374 7.44557 10.8531 6.92463C10.3321 6.4037 9.6256 6.11104 8.88888 6.11104Z" fill="#243C7C"/>
</svg>
