<svg width="18" height="18" viewBox="0 0 18 18" fill="none" xmlns="http://www.w3.org/2000/svg">
<path fill-rule="evenodd" clip-rule="evenodd" d="M1.5 9V6C1.5 3.879 1.5 2.81775 2.15925 2.15925C2.81775 1.5 3.879 1.5 6 1.5H12C14.121 1.5 15.1823 1.5 15.8407 2.15925C16.5 2.81775 16.5 3.879 16.5 6V9C16.5 11.121 16.5 12.1822 15.8407 12.8407C15.3562 13.326 14.6542 13.4542 13.4722 13.488C13.47 12.9197 13.2662 12.3706 12.897 11.9385C12.8748 11.9135 12.8616 11.8818 12.8595 11.8485C12.8141 11.278 12.5669 10.7423 12.1622 10.3375C11.7576 9.93275 11.222 9.68537 10.6515 9.63975C10.6182 9.63762 10.5865 9.62442 10.5615 9.60225C10.1259 9.23105 9.57231 9.02717 9 9.02717C8.42769 9.02717 7.8741 9.23105 7.4385 9.60225C7.41351 9.62442 7.38184 9.63762 7.3485 9.63975C6.77785 9.6852 6.24208 9.9325 5.83729 10.3373C5.4325 10.7421 5.1852 11.2779 5.13975 11.8485C5.13762 11.8818 5.12442 11.9135 5.10225 11.9385C4.73336 12.3707 4.52978 12.9198 4.52775 13.488C3.34575 13.4542 2.64375 13.326 2.15925 12.8407C1.5 12.1822 1.5 11.121 1.5 9ZM6.1875 4.5C6.1875 4.35082 6.24676 4.20774 6.35225 4.10225C6.45774 3.99676 6.60082 3.9375 6.75 3.9375H11.25C11.3992 3.9375 11.5423 3.99676 11.6477 4.10225C11.7532 4.20774 11.8125 4.35082 11.8125 4.5C11.8125 4.64918 11.7532 4.79226 11.6477 4.89775C11.5423 5.00324 11.3992 5.0625 11.25 5.0625H6.75C6.60082 5.0625 6.45774 5.00324 6.35225 4.89775C6.24676 4.79226 6.1875 4.64918 6.1875 4.5ZM5.25 6.5625C5.10082 6.5625 4.95774 6.62176 4.85225 6.72725C4.74676 6.83274 4.6875 6.97582 4.6875 7.125C4.6875 7.27418 4.74676 7.41726 4.85225 7.52275C4.95774 7.62824 5.10082 7.6875 5.25 7.6875H12.75C12.8992 7.6875 13.0423 7.62824 13.1477 7.52275C13.2532 7.41726 13.3125 7.27418 13.3125 7.125C13.3125 6.97582 13.2532 6.83274 13.1477 6.72725C13.0423 6.62176 12.8992 6.5625 12.75 6.5625H5.25Z" fill="white"/>
<path fill-rule="evenodd" clip-rule="evenodd" d="M9.83238 10.4588C9.60023 10.2607 9.30506 10.1519 8.99988 10.1519C8.6947 10.1519 8.39952 10.2607 8.16738 10.4588C7.96225 10.6342 7.70674 10.7401 7.43763 10.761C7.13348 10.7852 6.84792 10.9171 6.63224 11.1329C6.41657 11.3487 6.2849 11.6344 6.26088 11.9385C6.23988 12.207 6.13338 12.462 5.95863 12.6683C5.76093 12.9003 5.65234 13.1952 5.65234 13.5C5.65234 13.8049 5.76093 14.0997 5.95863 14.3318C6.13413 14.5373 6.23988 14.793 6.26088 15.0615C6.28492 15.3658 6.4167 15.6515 6.63253 15.8674C6.84836 16.0832 7.13409 16.215 7.43838 16.239C7.70688 16.26 7.96263 16.3658 8.16813 16.5405C8.40017 16.7382 8.69504 16.8468 8.99988 16.8468C9.30472 16.8468 9.59959 16.7382 9.83163 16.5405C10.0368 16.3651 10.2923 16.2592 10.5614 16.2383C10.8655 16.2143 11.1512 16.0826 11.367 15.8669C11.5828 15.6512 11.7147 15.3657 11.7389 15.0615C11.7596 14.7925 11.8652 14.537 12.0404 14.3318C12.2383 14.0997 12.347 13.8047 12.347 13.4997C12.347 13.1946 12.2383 12.8996 12.0404 12.6675C11.8649 12.4624 11.7591 12.2069 11.7381 11.9378C11.7139 11.6337 11.5822 11.3483 11.3665 11.1326C11.1509 10.917 10.8654 10.7852 10.5614 10.761C10.2923 10.7401 10.0375 10.6342 9.83238 10.4588ZM10.5081 13.161C10.5629 13.1108 10.6072 13.0502 10.6385 12.9828C10.6697 12.9154 10.6873 12.8424 10.6902 12.7681C10.693 12.6939 10.6812 12.6198 10.6552 12.5501C10.6293 12.4805 10.5898 12.4166 10.5391 12.3623C10.4884 12.308 10.4274 12.2643 10.3596 12.2337C10.2919 12.2031 10.2188 12.1862 10.1445 12.1841C10.0702 12.1819 9.99619 12.1945 9.92679 12.2211C9.85739 12.2477 9.79395 12.2878 9.74013 12.339L8.51763 13.4805L8.25813 13.239C8.14883 13.1389 8.00442 13.0859 7.85628 13.0916C7.70815 13.0974 7.56827 13.1614 7.46706 13.2697C7.36585 13.378 7.3115 13.5219 7.31582 13.6701C7.32014 13.8183 7.38278 13.9588 7.49013 14.061L8.13288 14.661C8.23706 14.7584 8.37431 14.8125 8.51688 14.8125C8.65945 14.8125 8.7967 14.7584 8.90088 14.661L10.5081 13.161Z" fill="white"/>
</svg>
