<svg width="24" height="24" viewBox="0 0 24 24" fill="none" xmlns="http://www.w3.org/2000/svg">
<path d="M15.29 16.5H20.74C20.8003 16.4966 20.8576 16.473 20.903 16.4331C20.9483 16.3933 20.9789 16.3393 20.99 16.28V9C20.99 8.46957 20.7793 7.96086 20.4042 7.58579C20.0291 7.21071 19.5204 7 18.99 7H14.29C14.2237 7 14.1601 7.02634 14.1132 7.07322C14.0663 7.12011 14.04 7.1837 14.04 7.25V7.5C14.04 8.16304 13.7766 8.79893 13.3078 9.26777C12.8389 9.73661 12.203 10 11.54 10C10.877 10 10.2411 9.73661 9.77223 9.26777C9.30339 8.79893 9.04 8.16304 9.04 7.5V7.25C9.04 7.1837 9.01366 7.12011 8.96678 7.07322C8.91989 7.02634 8.8563 7 8.79 7H5C4.46957 7 3.96086 7.21071 3.58579 7.58579C3.21071 7.96086 3 8.46957 3 9V22C3 22.5304 3.21071 23.0391 3.58579 23.4142C3.96086 23.7893 4.46957 24 5 24H13.31C13.3728 23.995 13.4313 23.9664 13.474 23.9201C13.5166 23.8737 13.5402 23.813 13.54 23.75V18.25C13.54 17.7859 13.7244 17.3408 14.0526 17.0126C14.3808 16.6844 14.8259 16.5 15.29 16.5ZM10.29 19H7.29C7.09109 19 6.90032 18.921 6.75967 18.7803C6.61902 18.6397 6.54 18.4489 6.54 18.25C6.54 18.0511 6.61902 17.8603 6.75967 17.7197C6.90032 17.579 7.09109 17.5 7.29 17.5H10.29C10.4889 17.5 10.6797 17.579 10.8203 17.7197C10.961 17.8603 11.04 18.0511 11.04 18.25C11.04 18.4489 10.961 18.6397 10.8203 18.7803C10.6797 18.921 10.4889 19 10.29 19ZM7.29 14.5C7.09109 14.5 6.90032 14.421 6.75967 14.2803C6.61902 14.1397 6.54 13.9489 6.54 13.75C6.54 13.5511 6.61902 13.3603 6.75967 13.2197C6.90032 13.079 7.09109 13 7.29 13H16.79C16.9889 13 17.1797 13.079 17.3203 13.2197C17.461 13.3603 17.54 13.5511 17.54 13.75C17.54 13.9489 17.461 14.1397 17.3203 14.2803C17.1797 14.421 16.9889 14.5 16.79 14.5H7.29Z" fill="#2848A5"/>
<path d="M19.91 18.4296C19.9452 18.3932 19.9695 18.3477 19.9802 18.2982C19.9908 18.2487 19.9872 18.1972 19.97 18.1496C19.9505 18.1049 19.9183 18.0668 19.8774 18.0402C19.8365 18.0135 19.7888 17.9994 19.74 17.9996H15.29C15.2237 17.9996 15.1601 18.0259 15.1132 18.0728C15.0663 18.1197 15.04 18.1833 15.04 18.2496V22.7096C15.0398 22.7584 15.0539 22.8062 15.0806 22.847C15.1072 22.8879 15.1453 22.9201 15.19 22.9396C15.235 22.9585 15.2845 22.9639 15.3325 22.955C15.3804 22.9461 15.4248 22.9234 15.46 22.8896L19.91 18.4296ZM10.38 5.76959C10.4258 5.78865 10.4653 5.82043 10.4936 5.86119C10.522 5.90195 10.5381 5.94998 10.54 5.99959V7.49959C10.54 7.7648 10.6453 8.01916 10.8329 8.20669C11.0204 8.39423 11.2748 8.49959 11.54 8.49959C11.8052 8.49959 12.0595 8.39423 12.2471 8.20669C12.4346 8.01916 12.54 7.7648 12.54 7.49959V5.99959C12.5398 5.9508 12.5539 5.90302 12.5806 5.86215C12.6072 5.82128 12.6453 5.7891 12.69 5.76959C13.2375 5.54233 13.7055 5.15794 14.0347 4.66494C14.364 4.17193 14.5398 3.59243 14.54 2.99959C14.5394 2.45701 14.3916 1.92476 14.1125 1.4595C13.8334 0.994242 13.4333 0.613395 12.9548 0.357511C12.4764 0.101627 11.9375 -0.0197136 11.3955 0.00640948C10.8536 0.0325325 10.3289 0.205141 9.87726 0.505856C9.42565 0.806572 9.06404 1.22413 8.83094 1.71409C8.59784 2.20404 8.50198 2.74803 8.55357 3.28815C8.60515 3.82826 8.80225 4.34428 9.12387 4.78125C9.4455 5.21822 9.87961 5.55979 10.38 5.76959Z" fill="#2848A5"/>
</svg>
