<svg width="24" height="24" viewBox="0 0 24 24" fill="none" xmlns="http://www.w3.org/2000/svg">
<path d="M8.25 5C5.933 5.006 4.693 5.063 3.778 5.674C3.34106 5.96591 2.96591 6.34106 2.674 6.778C2 7.787 2 9.19 2 12C2 14.81 2 16.213 2.674 17.222C2.96591 17.6589 3.34106 18.0341 3.778 18.326C4.693 18.937 5.933 18.994 8.25 19V14.906C7.606 14.7395 7.03555 14.3638 6.6283 13.8379C6.22104 13.312 6.00005 12.6657 6.00005 12.0005C6.00005 11.3353 6.22104 10.689 6.6283 10.1631C7.03555 9.63718 7.606 9.26147 8.25 9.095V5ZM9.75 19H14.25V5H9.75V19ZM15.75 5V9.095C16.3936 9.26181 16.9635 9.6376 17.3704 10.1634C17.7773 10.6892 17.998 11.3352 17.998 12C17.998 12.6648 17.7773 13.3108 17.3704 13.8366C16.9635 14.3624 16.3936 14.7382 15.75 14.905V19C18.067 18.994 19.308 18.937 20.222 18.326C20.6589 18.0341 21.0341 17.6589 21.326 17.222C22 16.213 22 14.81 22 12C22 9.19 22 7.787 21.326 6.778C21.0341 6.34106 20.6589 5.96591 20.222 5.674C19.307 5.063 18.067 5.005 15.75 5Z" fill="#1BAE7E"/>
</svg>
