<svg width="24" height="24" viewBox="0 0 24 24" fill="none" xmlns="http://www.w3.org/2000/svg">
<g clip-path="url(#clip0_8184_5607)">
<path fill-rule="evenodd" clip-rule="evenodd" d="M3.5985 7.115C4.52384 5.45457 5.96362 4.13973 7.701 3.3685C7.58133 3.59783 7.46883 3.83583 7.3635 4.0825C6.9845 4.967 6.6775 5.9925 6.457 7.115H3.5985ZM2.5 11.36C2.5 10.5835 2.601 9.8315 2.791 9.115H6.1675C6.0623 10.212 6.0344 11.3151 6.084 12.416C6.08981 12.5472 6.12141 12.676 6.177 12.795C6.23258 12.914 6.31106 13.0209 6.40796 13.1096C6.50486 13.1983 6.61828 13.267 6.74174 13.3119C6.86519 13.3567 6.99628 13.3768 7.1275 13.371C7.25872 13.3652 7.38752 13.3336 7.50653 13.278C7.62554 13.2224 7.73244 13.1439 7.82112 13.047C7.9098 12.9501 7.97852 12.8367 8.02337 12.7133C8.06822 12.5898 8.08831 12.4587 8.0825 12.3275C8.06824 12.0052 8.06107 11.6826 8.061 11.36C8.061 10.5815 8.102 9.83 8.178 9.115H14.286C14.3227 9.46133 14.351 9.81617 14.371 10.1795C14.3772 10.3113 14.4094 10.4406 14.4658 10.5599C14.5221 10.6792 14.6016 10.7861 14.6994 10.8746C14.7973 10.963 14.9118 11.0313 15.0362 11.0753C15.1605 11.1193 15.2924 11.1383 15.4242 11.1312C15.5559 11.124 15.6849 11.0908 15.8038 11.0336C15.9227 10.9763 16.0291 10.8961 16.1168 10.7976C16.2045 10.699 16.2719 10.5841 16.315 10.4594C16.3581 10.3347 16.3761 10.2027 16.368 10.071C16.3506 9.75187 16.3266 9.43313 16.296 9.115H19.673C19.829 9.705 19.9255 10.3195 19.9545 10.9515C19.9667 11.2165 20.0837 11.4657 20.2796 11.6444C20.4756 11.8231 20.7345 11.9167 20.9995 11.9045C21.2645 11.8923 21.5137 11.7753 21.6924 11.5794C21.8711 11.3834 21.9647 11.1245 21.9525 10.8595C21.69 5.163 16.9915 0.625 11.232 0.625C5.3045 0.625 0.5 5.432 0.5 11.36C0.5 15.1855 2.501 18.543 5.509 20.443C5.73324 20.5846 6.00456 20.6314 6.26326 20.573C6.52197 20.5145 6.74687 20.3557 6.8885 20.1315C7.03013 19.9073 7.07687 19.6359 7.01845 19.3772C6.96004 19.1185 6.80124 18.8936 6.577 18.752C5.31033 17.9519 4.26962 16.8408 3.554 15.5245H6C6.26522 15.5245 6.51957 15.4191 6.70711 15.2316C6.89464 15.0441 7 14.7897 7 14.5245C7 14.2593 6.89464 14.0049 6.70711 13.8174C6.51957 13.6299 6.26522 13.5245 6 13.5245H2.77C2.59007 12.8171 2.49936 12.0899 2.5 11.36ZM14.7625 3.368C16.5001 4.13927 17.9401 5.4543 18.8655 7.115H16.0065C15.749 5.805 15.3735 4.623 14.9005 3.643C14.856 3.55059 14.81 3.45892 14.7625 3.368ZM8.5 7.115H13.9635C13.741 6.11 13.4445 5.228 13.099 4.512C12.394 3.0515 11.675 2.625 11.232 2.625C10.9945 2.625 10.684 2.733 10.311 3.1015C9.9335 3.4745 9.5475 4.0635 9.202 4.87C8.925 5.5165 8.6865 6.2735 8.5 7.115ZM14.969 12.375C15.641 12.1491 16.3685 12.1491 17.0405 12.375C17.72 12.603 18.8165 12.9925 20.3295 13.597C21.273 13.9735 22.009 14.286 22.569 14.5345C23.1465 14.7905 23.5 15.3215 23.5 15.9095C23.5 16.4975 23.1465 17.028 22.569 17.2845C22.1265 17.48 21.5745 17.716 20.8975 17.9925V19.247C20.8975 19.979 20.8675 20.511 20.829 20.8945C20.751 21.672 20.2965 22.3885 19.525 22.7345C18.834 23.045 17.72 23.375 16.1225 23.375C14.525 23.375 13.4105 23.045 12.7195 22.735C11.9485 22.3885 11.494 21.672 11.416 20.895C11.3775 20.511 11.3475 19.979 11.3475 19.247V18.088C11.0402 17.9637 10.7563 17.847 10.496 17.738V21.8425C10.496 22.1077 10.3906 22.3621 10.2031 22.5496C10.0156 22.7371 9.76122 22.8425 9.496 22.8425C9.23078 22.8425 8.97643 22.7371 8.78889 22.5496C8.60136 22.3621 8.496 22.1077 8.496 21.8425V16.131C8.496 16.0733 8.50067 16.017 8.51 15.962L8.509 15.909C8.509 15.3215 8.863 14.7905 9.4405 14.534C10.0005 14.286 10.7365 13.974 11.68 13.597C13.193 12.9925 14.2895 12.603 14.969 12.375ZM17.0405 19.4435C17.483 19.295 18.1015 19.0785 18.897 18.778V19.247C18.897 19.9265 18.8695 20.3905 18.839 20.695C18.826 20.825 18.767 20.883 18.706 20.91C18.271 21.105 17.436 21.375 16.1225 21.375C14.809 21.375 13.974 21.105 13.539 20.91C13.478 20.883 13.419 20.825 13.406 20.695C13.3755 20.3905 13.3475 19.9265 13.3475 19.247V18.8665C14.031 19.1215 14.571 19.31 14.969 19.4435C15.641 19.6694 16.3685 19.6694 17.0405 19.4435Z" fill="#1BAE7E"/>
</g>
<defs>
<clipPath id="clip0_8184_5607">
<rect width="24" height="24" fill="white"/>
</clipPath>
</defs>
</svg>
