<svg width="24" height="24" viewBox="0 0 24 24" fill="none" xmlns="http://www.w3.org/2000/svg">
<path d="M7.833 18C9.233 18 10.453 18.819 11.028 20.028C11.142 20.2675 11.1563 20.5425 11.0676 20.7925C10.9789 21.0424 10.7945 21.247 10.555 21.361C10.3155 21.475 10.0405 21.4893 9.79054 21.4006C9.54055 21.3119 9.33604 21.1275 9.222 20.888C9.09843 20.6236 8.90225 20.3997 8.65633 20.2425C8.41041 20.0853 8.12488 20.0012 7.833 20H3C2.73478 20 2.48043 19.8946 2.29289 19.7071C2.10536 19.5196 2 19.2652 2 19C2 18.7348 2.10536 18.4804 2.29289 18.2929C2.48043 18.1054 2.73478 18 3 18H7.833ZM21 18C21.2652 18 21.5196 18.1054 21.7071 18.2929C21.8946 18.4804 22 18.7348 22 19C22 19.2652 21.8946 19.5196 21.7071 19.7071C21.5196 19.8946 21.2652 20 21 20H16.167C15.6 20 15.032 20.357 14.778 20.889C14.664 21.1285 14.4594 21.3129 14.2095 21.4016C13.9595 21.4903 13.6845 21.476 13.445 21.362C13.2055 21.248 13.0211 21.0434 12.9324 20.7935C12.8437 20.5435 12.858 20.2685 12.972 20.029C13.2618 19.4261 13.7147 18.9164 14.2794 18.5578C14.8442 18.1991 15.4981 18.0059 16.167 18H21Z" fill="#1BAE7E"/>
<path fill-rule="evenodd" clip-rule="evenodd" d="M8.889 3.006C9.48739 3.03732 10.0728 3.19249 10.6081 3.4617C11.1434 3.73091 11.617 4.10831 11.999 4.57C12.405 4.07918 12.9143 3.68399 13.4906 3.41261C14.0669 3.14123 14.696 3.00035 15.333 3H22C22.2652 3 22.5196 3.10536 22.7071 3.29289C22.8946 3.48043 23 3.73478 23 4V16.001C23 16.2662 22.8946 16.5206 22.7071 16.7081C22.5196 16.8956 22.2652 17.001 22 17.001L15.333 17C14.675 17 14.248 17.162 13.961 17.354C13.6813 17.5458 13.4571 17.808 13.311 18.114C13.1255 18.4939 13.0197 18.9077 13 19.33V19.339L12.995 19.436C12.9702 19.6827 12.8547 19.9114 12.6709 20.0777C12.487 20.244 12.2479 20.3361 12 20.3361C11.7521 20.3361 11.513 20.244 11.3291 20.0777C11.1453 19.9114 11.0298 19.6827 11.005 19.436L11 19.334V19.329L10.996 19.261C10.9697 18.8612 10.8661 18.4704 10.691 18.11C10.5489 17.8044 10.328 17.5421 10.051 17.35C9.771 17.16 9.353 17 8.708 17H2C1.73478 17 1.48043 16.8946 1.29289 16.7071C1.10536 16.5196 1 16.2652 1 16V4C1 3.73478 1.10536 3.48043 1.29289 3.29289C1.48043 3.10536 1.73478 3 2 3H8.667L8.889 3.006ZM11 5V17.334H13V5H11Z" fill="#1BAE7E"/>
</svg>
